<svg version="1.1" id="Layer_1" xmlns="http://www.w3.org/2000/svg" xmlns:xlink="http://www.w3.org/1999/xlink" x="0px" y="0px"
	 width="100%" viewBox="0 0 1200 1200" enable-background="new 0 0 1200 1200" xml:space="preserve">
<path fill="#000000" opacity="1.000000" stroke="none" 
	d="
M695.000000,1201.000000 
	C463.333344,1201.000000 232.166672,1201.000000 1.000000,1201.000000 
	C1.000000,801.000000 1.000000,401.000000 1.000000,1.000000 
	C401.000000,1.000000 801.000000,1.000000 1201.000000,1.000000 
	C1201.000000,401.000000 1201.000000,801.000000 1201.000000,1201.000000 
	C1032.500000,1201.000000 864.000000,1201.000000 695.000000,1201.000000 
M264.998962,710.500000 
	C264.998962,805.919678 264.998962,901.339417 264.998962,996.696655 
	C489.324005,996.696655 713.042908,996.696655 936.697937,996.696655 
	C936.697937,732.674805 936.697937,468.958313 936.697937,205.303375 
	C712.675842,205.303375 488.956970,205.303375 264.998962,205.303375 
	C264.998962,373.572479 264.998962,541.536255 264.998962,710.500000 
z"/>
<path fill="#A6D9DF" opacity="1.000000" stroke="none" 
	d="
M264.998962,710.000000 
	C264.998962,541.536255 264.998962,373.572479 264.998962,205.303375 
	C488.956970,205.303375 712.675842,205.303375 936.697937,205.303375 
	C936.697937,468.958313 936.697937,732.674805 936.697937,996.696655 
	C713.042908,996.696655 489.324005,996.696655 264.998962,996.696655 
	C264.998962,901.339417 264.998962,805.919678 264.998962,710.000000 
M916.260864,774.500000 
	C916.260864,591.452271 916.260864,408.404602 916.260864,225.308273 
	C705.687500,225.308273 495.973053,225.308273 286.168854,225.308273 
	C286.168854,475.979675 286.168854,726.311157 286.168854,976.691528 
	C496.313019,976.691528 706.027466,976.691528 916.261292,976.691528 
	C916.261292,909.402039 916.261292,842.450989 916.260864,774.500000 
z"/>
<path fill="#BDC022" opacity="1.000000" stroke="none" 
	d="
M916.261108,775.000000 
	C916.261292,842.450989 916.261292,909.402039 916.261292,976.691528 
	C706.027466,976.691528 496.313019,976.691528 286.168854,976.691528 
	C286.168854,726.311157 286.168854,475.979675 286.168854,225.308273 
	C495.973053,225.308273 705.687500,225.308273 916.260864,225.308273 
	C916.260864,408.404602 916.260864,591.452271 916.261108,775.000000 
M460.985291,741.507080 
	C461.016632,741.095886 461.047974,740.684753 462.002319,740.186829 
	C554.142700,740.175842 646.283142,740.164551 738.423523,740.158936 
	C739.255066,740.158875 740.086548,740.235596 740.931763,740.869324 
	C740.966492,741.263367 741.001282,741.657349 740.769287,742.670349 
	C736.878906,745.824097 732.988525,748.977844 729.411743,751.877319 
	C734.908203,751.877319 741.162903,751.877502 747.417603,751.877258 
	C761.039795,751.876770 774.666443,752.053162 788.279785,751.705566 
	C790.619873,751.645752 793.325378,749.748291 795.027161,747.921875 
	C795.830872,747.059265 795.315613,743.600769 794.233398,742.664246 
	C792.555725,741.212341 789.891602,740.263245 787.628296,740.228333 
	C772.681030,739.998047 757.729004,740.069153 742.942261,739.256104 
	C743.592834,736.011963 744.801819,732.769226 744.810120,729.523438 
	C744.932373,681.704834 744.957092,633.885559 744.857605,586.066772 
	C744.828003,571.839233 735.782104,563.156189 721.497986,563.154480 
	C641.188782,563.144958 560.879578,563.145081 480.570343,563.154114 
	C465.760986,563.155762 457.101746,571.921021 457.100494,586.859192 
	C457.096619,633.345215 457.041321,679.831482 457.189453,726.317017 
	C457.204010,730.892761 458.480652,735.464478 458.210907,740.103516 
	C443.253326,740.111145 428.295746,740.126770 413.338165,740.120911 
	C409.504791,740.119446 406.598572,741.710999 406.375214,745.671265 
	C406.152435,749.621704 408.753082,751.819275 412.662354,751.832458 
	C432.853729,751.900696 453.045471,751.864136 472.171753,751.864136 
	C468.711884,748.870972 464.811401,745.496643 460.985291,741.507080 
M549.234375,444.348267 
	C549.489014,444.232178 549.743652,444.116089 550.300903,443.350189 
	C552.848389,437.437195 557.512939,435.994202 560.610535,440.592682 
	C562.644653,443.612457 564.395874,442.839905 566.837463,442.077606 
	C571.584717,440.595398 576.299622,438.759949 581.173523,437.976349 
	C601.562561,434.698456 622.007690,436.493225 642.445312,437.742188 
	C647.137573,438.028992 651.112244,438.737427 651.672424,445.030243 
	C652.807251,443.955627 653.437988,443.475433 653.926453,442.878723 
	C665.505676,428.733093 673.156677,412.588226 677.816528,395.018677 
	C678.326355,393.096191 677.643860,390.173004 676.402710,388.580261 
	C667.427124,377.062195 658.095459,365.822540 649.027710,354.374939 
	C645.254456,349.611328 640.296204,347.925964 634.567932,348.037170 
	C619.277466,348.334045 603.959900,348.322784 588.716064,349.359436 
	C583.238159,349.731903 580.181885,348.103241 576.879700,344.232391 
	C570.235229,336.443695 563.076111,329.093994 555.701904,321.099731 
	C551.784485,325.608246 548.355530,329.030731 545.533203,332.896149 
	C534.929321,347.418945 527.817627,363.712921 521.971191,380.605011 
	C521.550354,381.820984 521.150452,383.265228 521.405762,384.461426 
	C526.089722,406.405396 534.254639,426.749756 549.234375,444.348267 
M759.476013,522.122986 
	C754.260193,512.984680 746.171387,506.889648 737.421082,501.584961 
	C719.886963,490.955322 700.501953,484.881561 681.114563,478.771912 
	C677.711243,477.699402 676.078674,478.431854 674.190735,481.223663 
	C662.716064,498.191437 650.951904,514.964417 639.573181,531.995422 
	C636.963196,535.901917 634.313538,538.209839 629.114197,536.385742 
	C629.114197,539.198730 629.216797,541.520569 629.089722,543.829712 
	C628.906128,547.164734 627.106140,549.098938 623.692261,549.107605 
	C608.530518,549.146240 593.368652,549.142578 578.206787,549.115479 
	C574.772583,549.109314 572.974792,547.207825 572.849426,543.844238 
	C572.740417,540.918457 572.826782,537.985352 572.826782,534.496521 
	C567.299316,537.530579 564.120850,535.222839 561.393799,531.175781 
	C550.133301,514.464233 538.759399,497.828979 527.543579,481.087677 
	C525.813416,478.505035 524.266541,477.502563 521.057556,478.722137 
	C515.779480,480.728088 510.236420,482.023926 504.891693,483.869934 
	C486.919495,490.077362 469.116089,496.681366 454.046173,508.798218 
	C446.192535,515.112854 439.848419,522.710266 438.179138,532.887329 
	C430.071960,582.314636 422.131989,631.770203 414.457794,681.266174 
	C413.810852,685.438843 414.415039,690.623108 416.420410,694.237427 
	C422.631256,705.431335 433.438080,710.867920 445.809723,715.409424 
	C445.809723,712.625366 445.809662,710.681946 445.809753,708.738525 
	C445.811859,667.418091 445.782623,626.097595 445.830414,584.777222 
	C445.851746,566.330261 459.254150,552.488647 477.661377,551.935425 
	C485.318970,551.705139 492.988434,551.856873 500.652496,551.856506 
	C573.796326,551.853271 646.940430,551.777527 720.083618,551.997498 
	C726.080383,552.015503 732.631470,552.871643 737.953064,555.391174 
	C750.776672,561.462646 756.243835,572.560486 756.215210,586.661072 
	C756.132507,627.481506 756.185181,668.302185 756.200745,709.122803 
	C756.201416,711.012817 756.357910,712.902893 756.471558,715.464417 
	C767.414551,711.148438 777.359680,706.578186 783.649963,697.334290 
	C786.220276,693.557068 787.942078,687.856018 787.287781,683.439392 
	C780.850281,639.985046 773.970886,596.594055 766.873352,553.241272 
	C765.192505,542.974792 762.225098,532.918823 759.476013,522.122986 
M551.568237,309.940674 
	C554.759949,307.362457 557.604858,307.908997 560.378479,310.729523 
	C568.431335,318.918365 576.447510,327.148621 584.721375,335.109802 
	C586.225525,336.557129 588.879333,337.504761 591.001892,337.503754 
	C607.456299,337.495911 623.916321,336.898376 640.360413,337.217773 
	C644.114075,337.290649 648.386169,339.516693 651.412109,341.986298 
	C657.061951,346.597595 662.157898,351.942169 667.140015,357.301758 
	C672.177490,362.720886 676.797791,368.527863 682.298279,374.983521 
	C683.581543,360.750824 684.061340,347.474396 681.936707,334.253876 
	C678.495667,312.841766 670.645447,293.578094 653.956787,278.792206 
	C634.076477,261.178436 610.114075,260.365936 585.629944,262.563385 
	C579.106018,263.148926 572.490356,265.039948 566.376648,267.482574 
	C531.545227,281.398712 517.153931,322.295349 518.838196,356.222168 
	C527.123169,338.725403 536.317688,322.600006 551.568237,309.940674 
M473.650208,866.995850 
	C469.139130,866.210754 466.405273,868.053223 464.213165,872.133667 
	C460.452271,879.134216 456.065460,885.798462 451.635651,893.108398 
	C446.790344,885.117920 442.376495,877.682556 437.764496,870.372192 
	C436.896576,868.996460 435.315308,867.293579 433.930511,867.164429 
	C429.516357,866.752869 425.039734,867.011963 420.421478,867.011963 
	C420.421478,887.592407 420.421478,907.624207 420.421478,927.654907 
	C425.721527,927.654907 430.628845,927.654907 436.109924,927.654907 
	C436.109924,917.812744 436.109924,908.306152 436.109924,898.799561 
	C440.459991,904.262390 443.856995,909.933167 447.285553,915.584839 
	C450.368683,920.667053 452.819275,920.689087 455.940491,915.630066 
	C459.389069,910.040466 462.776794,904.413269 466.190979,898.802429 
	C466.581757,898.905457 466.972565,899.008545 467.363373,899.111572 
	C467.363373,908.634644 467.363373,918.157715 467.363373,927.619263 
	C472.947845,927.619263 477.855896,927.619263 482.785706,927.619263 
	C482.785706,907.319824 482.785706,887.407043 482.785706,866.995850 
	C479.844482,866.995850 477.218719,866.995850 473.650208,866.995850 
M591.964539,837.414551 
	C591.964539,830.212891 591.964539,823.011230 591.964539,815.809631 
	C596.455811,821.259277 599.852661,826.927246 603.279968,832.576660 
	C606.368103,837.667114 608.815674,837.694763 611.934814,832.639404 
	C615.384460,827.048340 618.771912,821.418884 622.186462,815.806213 
	C622.575073,815.907166 622.963623,816.008118 623.352173,816.109070 
	C623.352173,825.629211 623.352173,835.149292 623.352173,844.624939 
	C628.936707,844.624939 633.843323,844.624939 638.793762,844.624939 
	C638.793762,824.332642 638.793762,804.421204 638.793762,783.995850 
	C635.363403,783.995850 632.205505,784.286682 629.124207,783.925049 
	C624.906250,783.429993 622.501953,785.007446 620.466797,788.741028 
	C616.588013,795.856750 612.136719,802.660522 607.623352,810.087097 
	C602.776367,802.094604 598.362549,794.658142 593.748108,787.348267 
	C592.881958,785.976135 591.290161,784.290649 589.902283,784.161865 
	C585.490295,783.752625 581.016357,784.010437 576.429138,784.010437 
	C576.429138,804.611145 576.429138,824.641663 576.429138,844.647278 
	C581.736938,844.647278 586.643677,844.647278 591.964478,844.647278 
	C591.964478,842.325500 591.964478,840.356812 591.964539,837.414551 
M753.901184,822.405029 
	C755.318970,820.130432 756.736755,817.855896 758.154541,815.581299 
	C758.557312,815.741089 758.960022,815.900879 759.362793,816.060730 
	C759.362793,825.626343 759.362793,835.191956 759.362793,844.619324 
	C764.816650,844.619324 769.720398,844.619324 774.683044,844.619324 
	C774.683044,824.333923 774.683044,804.434631 774.683044,783.995850 
	C770.956421,783.995850 767.476929,784.262085 764.057312,783.923645 
	C760.380188,783.559631 758.366272,785.002197 756.595947,788.153076 
	C752.530029,795.389526 748.060364,802.399292 743.381775,810.116028 
	C738.616943,802.244934 734.201355,794.853760 729.661255,787.539856 
	C728.841614,786.219299 727.583252,784.319519 726.403137,784.224060 
	C721.682251,783.842285 716.912415,784.066406 712.234131,784.066406 
	C712.234131,804.728271 712.234131,824.628723 712.234131,844.681030 
	C717.462830,844.681030 722.353577,844.681030 727.928101,844.681030 
	C727.928101,834.905945 727.928101,825.440308 727.928101,815.974670 
	C732.506409,821.765930 736.040771,827.752380 739.738708,833.636047 
	C741.919067,837.105164 744.831604,837.099487 747.033630,833.684204 
	C749.286865,830.189575 751.364929,826.581970 753.901184,822.405029 
M794.572632,845.005859 
	C804.034546,844.694946 813.584656,845.073425 822.933289,843.877136 
	C832.101624,842.703918 836.209167,836.559631 836.087952,827.359863 
	C836.010681,821.496765 833.176331,817.368896 828.119141,814.317017 
	C829.153076,813.333252 830.015076,812.580627 830.800598,811.755188 
	C839.294800,802.829529 835.378601,787.301025 823.287048,785.426514 
	C811.290161,783.566833 798.928711,784.058167 786.494995,783.508118 
	C786.494995,804.605408 786.494995,824.497803 786.494995,845.005859 
	C789.050415,845.005859 791.325745,845.005859 794.572632,845.005859 
M517.057190,806.397888 
	C513.217102,799.971863 509.440613,793.506165 505.483002,787.153442 
	C504.695587,785.889587 503.276794,784.264526 502.042908,784.168152 
	C497.479309,783.812012 492.871185,784.026428 488.366333,784.026428 
	C488.366333,804.751160 488.366333,824.765076 488.366333,844.733215 
	C493.607178,844.733215 498.381622,844.733215 503.857910,844.733215 
	C503.857910,835.352295 503.857910,826.222473 503.857910,817.092590 
	C509.818848,825.162537 514.701538,833.435547 519.768555,841.593994 
	C520.626892,842.976013 522.199341,844.698792 523.577332,844.828918 
	C527.972290,845.244019 532.431091,844.982849 537.022095,844.982849 
	C537.022095,824.394470 537.022095,804.500183 537.022095,784.378540 
	C531.850220,784.378540 526.979248,784.378540 521.649048,784.378540 
	C521.649048,793.809509 521.649048,802.870667 521.649048,811.931824 
	C521.321350,812.045837 520.993591,812.159851 520.665894,812.273865 
	C519.582031,810.523926 518.498108,808.773926 517.057190,806.397888 
M381.788605,793.542236 
	C381.788605,790.460144 381.788605,787.378052 381.788605,784.394653 
	C376.021149,784.394653 371.118347,784.394653 366.214050,784.394653 
	C366.214050,804.690430 366.214050,824.588013 366.214050,844.702271 
	C371.418854,844.702271 376.310730,844.702271 381.976685,844.702271 
	C381.976685,836.735779 381.976685,829.045654 381.976685,821.380005 
	C388.177032,821.380005 393.597870,821.380005 399.829956,821.380005 
	C399.829956,829.345215 399.829956,837.032715 399.829956,844.637573 
	C405.396301,844.637573 410.140503,844.637573 415.013062,844.637573 
	C415.013062,824.378540 415.013062,804.485229 415.013062,784.385803 
	C409.832336,784.385803 404.961426,784.385803 399.564148,784.385803 
	C399.564148,791.689392 399.564148,798.617493 399.564148,805.683838 
	C393.460419,805.683838 387.894043,805.683838 381.788330,805.683838 
	C381.788330,801.761536 381.788330,798.140320 381.788605,793.542236 
M716.174927,875.684326 
	C718.031433,873.025452 719.887939,870.366516 722.241455,866.995850 
	C718.639465,866.995850 715.969604,867.330322 713.413696,866.932678 
	C705.970703,865.774780 700.919373,868.255310 697.428528,875.194458 
	C694.895203,880.230164 691.126831,884.644592 687.909119,889.335999 
	C687.504211,889.186401 687.099243,889.036804 686.694336,888.887207 
	C686.694336,881.668152 686.694336,874.449158 686.694336,867.379883 
	C681.201782,867.379883 676.297791,867.379883 671.327332,867.379883 
	C671.327332,887.663696 671.327332,907.562256 671.327332,927.581360 
	C676.649292,927.581360 681.673584,927.581360 686.690857,927.581360 
	C687.664978,921.586792 684.908081,914.907349 691.839478,910.729126 
	C695.420471,915.484314 698.968445,920.282471 702.629150,924.993164 
	C703.503784,926.118835 704.716431,927.735229 705.838013,927.789185 
	C711.683472,928.070618 717.549683,927.920471 724.327637,927.920471 
	C717.208130,918.310608 710.963135,909.494507 704.268433,901.034302 
	C701.575684,897.631409 701.732788,895.266663 704.332275,892.024902 
	C708.387268,886.967957 711.989929,881.548218 716.174927,875.684326 
M340.687683,821.810608 
	C334.688171,813.630859 334.687042,813.630066 340.595917,805.368896 
	C342.241119,803.068787 343.900818,800.778931 345.543945,798.477295 
	C348.770020,793.958252 351.989166,789.434326 355.863098,783.997437 
	C351.663300,783.997437 348.657318,784.387634 345.791504,783.919556 
	C338.953583,782.802734 334.678955,785.444641 331.436127,791.484314 
	C328.617310,796.734314 324.756378,801.424805 321.355957,806.362610 
	C320.908966,806.193115 320.462006,806.023621 320.015045,805.854187 
	C320.015045,798.663391 320.015045,791.472656 320.015045,784.360962 
	C314.616333,784.360962 309.874084,784.360962 304.993195,784.360962 
	C304.993195,804.615662 304.993195,824.505737 304.993195,844.629272 
	C310.166748,844.629272 315.039032,844.629272 320.021545,844.629272 
	C320.963623,838.675415 318.401520,831.998962 325.333954,827.731262 
	C328.857635,832.405151 332.371155,837.183105 336.033539,841.844055 
	C336.995331,843.068054 338.371857,844.746033 339.637085,844.817688 
	C345.321594,845.139648 351.034607,844.958008 357.876740,844.958008 
	C351.768066,836.740967 346.434998,829.567261 340.687683,821.810608 
M621.443115,926.246094 
	C624.299927,927.092834 627.110291,928.428467 630.021362,928.705505 
	C646.319580,930.256714 658.514404,924.991882 659.387390,906.146729 
	C659.802734,897.181335 659.700378,888.191406 659.800415,879.212280 
	C659.844238,875.279968 659.807800,871.346680 659.807800,867.322632 
	C654.176758,867.322632 649.277893,867.322632 643.909546,867.322632 
	C643.909546,869.441284 643.912781,871.235107 643.909119,873.028931 
	C643.888062,883.178894 644.019287,893.332275 643.790771,903.477600 
	C643.630310,910.603027 640.805908,913.343933 634.613464,913.206482 
	C628.758728,913.076477 626.117432,910.201477 626.036499,903.382935 
	C625.914062,893.067810 625.991577,882.750244 625.955994,872.433899 
	C625.949951,870.690125 625.802429,868.946960 625.729248,867.394043 
	C620.160217,867.394043 615.257385,867.394043 610.276978,867.394043 
	C610.276978,880.916321 609.938538,894.051025 610.405762,907.157043 
	C610.679749,914.843445 613.314575,921.882507 621.443115,926.246094 
M544.761414,919.723816 
	C541.123230,907.110229 537.536316,894.481445 533.820923,881.890625 
	C532.377075,876.997742 532.012085,870.312256 528.659119,867.868103 
	C525.248108,865.381531 518.749756,867.299683 513.629700,866.926941 
	C510.361053,866.688965 508.933167,867.885193 508.106415,870.987671 
	C505.796356,879.656738 503.204163,888.250854 500.711182,896.871033 
	C497.766388,907.053345 494.808838,917.231995 491.751373,927.775879 
	C497.454865,927.775879 502.570007,927.775879 508.190460,927.775879 
	C508.100983,921.737610 512.114136,921.578369 516.609314,921.973083 
	C518.755798,922.161560 520.933838,922.050171 523.095520,921.995056 
	C526.436035,921.909973 529.974487,921.319275 530.316284,926.356873 
	C530.355896,926.940308 531.700073,927.874695 532.462158,927.897888 
	C537.171082,928.041016 541.886597,927.969788 546.998352,927.969788 
	C546.178284,924.966003 545.569458,922.735779 544.761414,919.723816 
M864.099731,839.069336 
	C868.091309,839.048096 872.083496,839.061279 876.074341,838.994812 
	C879.397278,838.939575 882.962280,838.277954 883.309387,843.333008 
	C883.349976,843.924011 884.680664,844.872498 885.436584,844.895691 
	C890.151123,845.040222 894.872314,844.968506 900.059692,844.968506 
	C895.132080,827.773743 890.423889,811.341553 885.713684,794.909851 
	C882.584595,783.994080 882.583313,783.994446 870.981689,783.994507 
	C869.484680,783.994507 867.959045,784.181335 866.496338,783.957336 
	C863.139160,783.443054 861.917358,785.124146 861.078308,788.115417 
	C857.265015,801.710022 853.238586,815.244812 849.319031,828.809875 
	C847.814575,834.016785 846.390686,839.247070 844.639160,845.506470 
	C851.444458,843.072998 859.888550,849.693665 864.099731,839.069336 
M702.856873,843.726990 
	C697.177734,823.828918 691.498596,803.930847 685.808899,783.995605 
	C679.817078,783.995605 674.495056,784.174316 669.192993,783.925903 
	C666.202087,783.785828 665.211548,785.106079 664.488403,787.715942 
	C661.826904,797.320862 658.933533,806.861267 656.163513,816.436340 
	C653.457764,825.789307 650.796204,835.154968 647.976440,844.999817 
	C652.922546,844.999817 657.244873,845.186768 661.531860,844.880798 
	C662.746643,844.794067 664.636475,843.439209 664.870239,842.371277 
	C665.534058,839.338379 667.268005,838.828613 669.904480,838.971680 
	C672.723938,839.124695 675.571228,839.177551 678.383179,838.966187 
	C682.863037,838.629517 686.900085,838.707886 686.817200,844.565186 
	C692.425537,844.565186 697.540649,844.565186 702.856873,843.726990 
M436.217407,845.005188 
	C437.752808,844.405334 440.516907,843.968140 440.621368,843.178833 
	C441.234680,838.545715 444.348206,838.899963 447.570007,838.989197 
	C450.394806,839.067505 453.228302,839.109253 456.049164,838.978088 
	C459.208069,838.831238 462.071686,838.758484 462.513763,843.054016 
	C462.587524,843.770996 464.060791,844.859131 464.922699,844.893555 
	C469.510345,845.077209 474.109253,844.979980 479.145599,844.979980 
	C478.556854,842.591064 478.184875,840.825867 477.685760,839.097290 
	C473.861755,825.853943 470.051971,812.606201 466.152161,799.385071 
	C464.661041,794.329895 464.376892,787.391846 460.934509,784.864990 
	C457.434692,782.295898 450.715118,784.228394 445.418579,783.944702 
	C442.622925,783.794922 441.181305,784.633606 440.553131,787.501587 
	C439.737885,791.223450 438.442688,794.839111 437.380585,798.508179 
	C432.953949,813.800110 428.537201,829.094971 423.938629,845.005432 
	C428.075287,845.005432 431.684967,845.005432 436.217407,845.005188 
M769.852112,876.622742 
	C766.904114,866.994507 766.904114,866.994507 756.620667,866.994568 
	C754.790283,866.994568 752.941345,867.160645 751.133606,866.958313 
	C747.930481,866.599670 746.543823,867.823303 745.646606,871.036499 
	C740.775024,888.483093 735.604065,905.846069 730.567139,923.246765 
	C730.168396,924.624329 730.004272,926.069885 729.684875,927.723511 
	C735.260559,927.723511 740.356323,927.723511 745.432800,927.723511 
	C746.115173,925.767883 746.708313,924.067932 747.427979,922.005554 
	C752.072144,922.005554 756.712646,922.096497 761.347534,921.973816 
	C764.491760,921.890564 767.408813,921.698792 767.821045,926.045654 
	C767.888672,926.758301 769.304993,927.863953 770.133423,927.897034 
	C774.699097,928.078796 779.275818,927.983826 783.935364,927.983826 
	C783.935364,926.793274 784.048950,926.269226 783.918945,925.814819 
	C779.301575,909.678101 774.661438,893.547852 769.852112,876.622742 
M586.161194,867.136597 
	C582.031250,866.807007 577.865295,865.964661 573.778625,866.251526 
	C564.433472,866.907349 557.545288,872.424622 555.992249,879.778564 
	C554.209778,888.218811 557.496033,895.202759 565.958374,900.174316 
	C570.108887,902.612549 574.652344,904.387451 578.769897,906.873352 
	C580.391724,907.852539 581.337463,909.951538 582.591125,911.540710 
	C580.761230,912.408508 578.778259,914.233704 577.129333,913.969910 
	C571.507019,913.070679 566.002441,911.435791 559.824768,909.928406 
	C558.147522,913.301880 556.048218,917.524109 554.002258,921.639099 
	C562.014954,927.479370 573.239746,930.192261 581.997192,928.673767 
	C591.614319,927.006287 597.326721,921.987000 598.766907,913.938660 
	C600.291016,905.421448 596.509277,898.144592 587.825134,893.521606 
	C583.722534,891.337585 579.262085,889.814514 575.213257,887.546631 
	C573.790710,886.749817 573.112976,884.623291 572.095154,883.103943 
	C573.625916,882.356628 575.289734,880.787109 576.663696,881.009338 
	C581.662720,881.817993 586.564758,883.225891 592.232239,884.582214 
	C593.923340,881.114563 595.928467,877.002869 598.223938,872.295898 
	C594.184326,870.521362 590.568054,868.932922 586.161194,867.136597 
M646.976562,450.528290 
	C641.117981,455.165436 635.522339,460.202240 629.304871,464.294037 
	C625.397705,466.865387 620.656799,469.174408 616.114929,469.564880 
	C607.037537,470.345245 597.839905,469.705109 588.691833,469.691193 
	C582.470276,469.681732 576.888672,467.671692 571.981323,464.009918 
	C564.850159,458.688843 557.886902,453.142822 550.301208,447.266022 
	C550.301208,451.185120 549.927734,454.991241 550.445068,458.672150 
	C550.742371,460.787689 551.969360,463.528870 553.654968,464.574310 
	C568.208191,473.600647 582.925659,482.365753 597.713745,491.003937 
	C599.070984,491.796722 601.641052,491.849976 603.004395,491.090881 
	C618.256165,482.598328 633.395752,473.903229 648.513428,465.172516 
	C649.697266,464.488861 651.266052,463.176819 651.333008,462.076324 
	C651.636841,457.084442 651.466003,452.063660 651.466003,445.948578 
	C649.529968,447.924713 648.497009,448.979095 646.976562,450.528290 
M662.934998,477.490662 
	C663.498413,476.410583 664.061890,475.330536 664.625366,474.250488 
	C664.406799,473.732117 664.188232,473.213745 663.969727,472.695343 
	C661.132324,473.267181 658.005066,473.265442 655.514526,474.523743 
	C649.298157,477.664673 643.372498,481.380707 637.327332,484.860992 
	C628.464844,489.963318 619.599915,495.061371 610.535156,500.276825 
	C618.088135,507.599854 625.182373,514.478149 632.574768,521.645508 
	C642.440491,507.294281 652.484924,492.683136 662.934998,477.490662 
M547.045471,489.467194 
	C554.206604,500.011475 561.367737,510.555786 568.828613,521.541443 
	C576.335266,514.470947 583.404968,507.811951 590.882629,500.768707 
	C588.695312,499.334137 587.106079,498.207245 585.438477,497.211578 
	C572.595581,489.543488 559.635986,482.063568 546.946960,474.149597 
	C543.216553,471.822998 540.425415,472.192169 536.998901,474.577271 
	C540.334473,479.508057 543.497192,484.183319 547.045471,489.467194 
M548.896423,816.500000 
	C548.896423,825.910400 548.896423,835.320801 548.896423,844.584595 
	C554.650452,844.584595 559.538513,844.584595 564.445190,844.584595 
	C564.445190,824.255188 564.445190,804.352356 564.445190,784.314697 
	C559.186829,784.314697 554.285278,784.314697 548.896301,784.314697 
	C548.896301,794.920898 548.896301,805.210449 548.896423,816.500000 
M584.077454,525.985229 
	C584.077454,529.901428 584.077454,533.817566 584.077454,537.558105 
	C595.817810,537.558105 606.704956,537.558105 618.343323,537.558105 
	C617.809875,532.519653 618.784119,527.005554 616.532898,523.665283 
	C612.435181,517.585388 606.422791,512.796021 600.917419,507.169830 
	C595.446350,512.295776 590.437988,516.886047 585.583679,521.633789 
	C584.747620,522.451477 584.566284,523.938477 584.077454,525.985229 
z"/>
<path fill="#A6D9E0" opacity="1.000000" stroke="none" 
	d="
M459.171509,740.038025 
	C458.480652,735.464478 457.204010,730.892761 457.189453,726.317017 
	C457.041321,679.831482 457.096619,633.345215 457.100494,586.859192 
	C457.101746,571.921021 465.760986,563.155762 480.570343,563.154114 
	C560.879578,563.145081 641.188782,563.144958 721.497986,563.154480 
	C735.782104,563.156189 744.828003,571.839233 744.857605,586.066772 
	C744.957092,633.885559 744.932373,681.704834 744.810120,729.523438 
	C744.801819,732.769226 743.592834,736.011963 742.709229,739.618042 
	C742.476135,739.979980 742.168945,739.945129 741.850464,740.006104 
	C741.327271,740.136963 741.122681,740.206787 740.918091,740.276489 
	C740.086548,740.235596 739.255066,740.158875 738.423523,740.158936 
	C646.283142,740.164551 554.142700,740.175842 461.255890,740.127441 
	C460.310394,740.034912 460.111298,740.001831 459.726471,739.980164 
	C459.540741,739.991638 459.171478,740.038025 459.171509,740.038025 
M564.458679,629.940796 
	C566.498169,628.501648 568.612610,627.156372 570.559387,625.601196 
	C573.414673,623.320068 574.332214,620.329651 572.102844,617.285461 
	C570.017273,614.437622 566.999084,614.336304 564.105835,616.218506 
	C561.458069,617.940979 558.946167,619.873169 556.383606,621.725769 
	C541.547913,632.451294 526.688965,643.144836 511.892365,653.924133 
	C504.809937,659.083618 504.879272,662.404846 512.030762,667.744690 
	C516.031555,670.731934 520.110535,673.614258 524.143921,676.558167 
	C537.049011,685.977661 549.925293,695.436890 562.868774,704.803284 
	C565.926147,707.015869 569.392456,708.221741 572.074463,704.438110 
	C574.610718,700.860046 573.031006,697.886597 569.768372,695.519409 
	C564.784058,691.903137 559.848328,688.220215 554.881104,684.580261 
	C544.190491,676.746277 533.492859,668.921753 522.240051,660.684753 
	C536.501892,650.297241 550.189209,640.328186 564.458679,629.940796 
M671.144043,640.359802 
	C660.523682,632.622498 649.918335,624.864441 639.275208,617.158508 
	C635.327576,614.300293 631.451599,614.378296 629.673523,617.495056 
	C627.529785,621.252747 629.003845,624.168396 632.420227,626.345947 
	C632.560303,626.435181 632.691345,626.538818 632.825684,626.637024 
	C646.926697,636.941223 661.031921,647.239563 675.121704,657.559204 
	C676.502808,658.570801 677.788147,659.713196 679.326904,660.964844 
	C673.894226,664.931824 669.066650,668.464722 664.230896,671.986389 
	C653.474792,679.819336 642.672546,687.589905 631.982361,695.511841 
	C628.879395,697.811279 627.284668,700.965210 629.965149,704.544128 
	C632.335083,707.708374 635.331360,707.288757 638.294739,705.139465 
	C656.068420,692.247925 673.886108,679.416626 691.602478,666.446899 
	C696.634644,662.763000 696.484375,658.983521 691.443237,655.242920 
	C684.897522,650.385803 678.285461,645.618042 671.144043,640.359802 
M597.165710,691.752197 
	C604.810486,663.475159 612.423096,635.189270 620.140320,606.932007 
	C621.115234,603.362061 621.243530,600.246948 617.597168,598.290344 
	C613.907043,596.310425 610.458191,598.535400 609.033875,603.790771 
	C603.635071,623.710144 598.289551,643.643982 592.920959,663.571594 
	C588.851379,678.677673 584.724548,693.768616 580.741089,708.897400 
	C579.719971,712.775635 580.801758,716.128113 585.155457,716.932861 
	C589.216492,717.683655 591.091736,715.128296 591.999268,711.367920 
	C593.521423,705.060120 595.321045,698.819275 597.165710,691.752197 
z"/>
<path fill="#A6D9DF" opacity="1.000000" stroke="none" 
	d="
M759.662720,522.444519 
	C762.225098,532.918823 765.192505,542.974792 766.873352,553.241272 
	C773.970886,596.594055 780.850281,639.985046 787.287781,683.439392 
	C787.942078,687.856018 786.220276,693.557068 783.649963,697.334290 
	C777.359680,706.578186 767.414551,711.148438 756.471558,715.464417 
	C756.357910,712.902893 756.201416,711.012817 756.200745,709.122803 
	C756.185181,668.302185 756.132507,627.481506 756.215210,586.661072 
	C756.243835,572.560486 750.776672,561.462646 737.953064,555.391174 
	C732.631470,552.871643 726.080383,552.015503 720.083618,551.997498 
	C646.940430,551.777527 573.796326,551.853271 500.652496,551.856506 
	C492.988434,551.856873 485.318970,551.705139 477.661377,551.935425 
	C459.254150,552.488647 445.851746,566.330261 445.830414,584.777222 
	C445.782623,626.097595 445.811859,667.418091 445.809753,708.738525 
	C445.809662,710.681946 445.809723,712.625366 445.809723,715.409424 
	C433.438080,710.867920 422.631256,705.431335 416.420410,694.237427 
	C414.415039,690.623108 413.810852,685.438843 414.457794,681.266174 
	C422.131989,631.770203 430.071960,582.314636 438.179138,532.887329 
	C439.848419,522.710266 446.192535,515.112854 454.046173,508.798218 
	C469.116089,496.681366 486.919495,490.077362 504.891693,483.869934 
	C510.236420,482.023926 515.779480,480.728088 521.057556,478.722137 
	C524.266541,477.502563 525.813416,478.505035 527.543579,481.087677 
	C538.759399,497.828979 550.133301,514.464233 561.393799,531.175781 
	C564.120850,535.222839 567.299316,537.530579 572.826782,534.496521 
	C572.826782,537.985352 572.740417,540.918457 572.849426,543.844238 
	C572.974792,547.207825 574.772583,549.109314 578.206787,549.115479 
	C593.368652,549.142578 608.530518,549.146240 623.692261,549.107605 
	C627.106140,549.098938 628.906128,547.164734 629.089722,543.829712 
	C629.216797,541.520569 629.114197,539.198730 629.114197,536.385742 
	C634.313538,538.209839 636.963196,535.901917 639.573181,531.995422 
	C650.951904,514.964417 662.716064,498.191437 674.190735,481.223663 
	C676.078674,478.431854 677.711243,477.699402 681.114563,478.771912 
	C700.501953,484.881561 719.886963,490.955322 737.421082,501.584961 
	C746.171387,506.889648 754.260193,512.984680 759.662720,522.444519 
z"/>
<path fill="#A6D9E0" opacity="1.000000" stroke="none" 
	d="
M549.122253,443.959015 
	C534.254639,426.749756 526.089722,406.405396 521.405762,384.461426 
	C521.150452,383.265228 521.550354,381.820984 521.971191,380.605011 
	C527.817627,363.712921 534.929321,347.418945 545.533203,332.896149 
	C548.355530,329.030731 551.784485,325.608246 555.701904,321.099731 
	C563.076111,329.093994 570.235229,336.443695 576.879700,344.232391 
	C580.181885,348.103241 583.238159,349.731903 588.716064,349.359436 
	C603.959900,348.322784 619.277466,348.334045 634.567932,348.037170 
	C640.296204,347.925964 645.254456,349.611328 649.027710,354.374939 
	C658.095459,365.822540 667.427124,377.062195 676.402710,388.580261 
	C677.643860,390.173004 678.326355,393.096191 677.816528,395.018677 
	C673.156677,412.588226 665.505676,428.733093 653.926453,442.878723 
	C653.437988,443.475433 652.807251,443.955627 651.672424,445.030243 
	C651.112244,438.737427 647.137573,438.028992 642.445312,437.742188 
	C622.007690,436.493225 601.562561,434.698456 581.173523,437.976349 
	C576.299622,438.759949 571.584717,440.595398 566.837463,442.077606 
	C564.395874,442.839905 562.644653,443.612457 560.610535,440.592682 
	C557.512939,435.994202 552.848389,437.437195 549.930664,443.663147 
	C549.560486,443.976135 549.122253,443.959015 549.122253,443.959015 
z"/>
<path fill="#A6D9E0" opacity="1.000000" stroke="none" 
	d="
M551.286499,310.169678 
	C536.317688,322.600006 527.123169,338.725403 518.838196,356.222168 
	C517.153931,322.295349 531.545227,281.398712 566.376648,267.482574 
	C572.490356,265.039948 579.106018,263.148926 585.629944,262.563385 
	C610.114075,260.365936 634.076477,261.178436 653.956787,278.792206 
	C670.645447,293.578094 678.495667,312.841766 681.936707,334.253876 
	C684.061340,347.474396 683.581543,360.750824 682.298279,374.983521 
	C676.797791,368.527863 672.177490,362.720886 667.140015,357.301758 
	C662.157898,351.942169 657.061951,346.597595 651.412109,341.986298 
	C648.386169,339.516693 644.114075,337.290649 640.360413,337.217773 
	C623.916321,336.898376 607.456299,337.495911 591.001892,337.503754 
	C588.879333,337.504761 586.225525,336.557129 584.721375,335.109802 
	C576.447510,327.148621 568.431335,318.918365 560.378479,310.729523 
	C557.604858,307.908997 554.759949,307.362457 551.286499,310.169678 
z"/>
<path fill="#A6D9DF" opacity="1.000000" stroke="none" 
	d="
M474.121582,866.995850 
	C477.218719,866.995850 479.844482,866.995850 482.785706,866.995850 
	C482.785706,887.407043 482.785706,907.319824 482.785706,927.619263 
	C477.855896,927.619263 472.947845,927.619263 467.363373,927.619263 
	C467.363373,918.157715 467.363373,908.634644 467.363373,899.111572 
	C466.972565,899.008545 466.581757,898.905457 466.190979,898.802429 
	C462.776794,904.413269 459.389069,910.040466 455.940491,915.630066 
	C452.819275,920.689087 450.368683,920.667053 447.285553,915.584839 
	C443.856995,909.933167 440.459991,904.262390 436.109924,898.799561 
	C436.109924,908.306152 436.109924,917.812744 436.109924,927.654907 
	C430.628845,927.654907 425.721527,927.654907 420.421478,927.654907 
	C420.421478,907.624207 420.421478,887.592407 420.421478,867.011963 
	C425.039734,867.011963 429.516357,866.752869 433.930511,867.164429 
	C435.315308,867.293579 436.896576,868.996460 437.764496,870.372192 
	C442.376495,877.682556 446.790344,885.117920 451.635651,893.108398 
	C456.065460,885.798462 460.452271,879.134216 464.213165,872.133667 
	C466.405273,868.053223 469.139130,866.210754 474.121582,866.995850 
z"/>
<path fill="#A6D9DF" opacity="1.000000" stroke="none" 
	d="
M591.964478,837.901367 
	C591.964478,840.356812 591.964478,842.325500 591.964478,844.647278 
	C586.643677,844.647278 581.736938,844.647278 576.429138,844.647278 
	C576.429138,824.641663 576.429138,804.611145 576.429138,784.010437 
	C581.016357,784.010437 585.490295,783.752625 589.902283,784.161865 
	C591.290161,784.290649 592.881958,785.976135 593.748108,787.348267 
	C598.362549,794.658142 602.776367,802.094604 607.623352,810.087097 
	C612.136719,802.660522 616.588013,795.856750 620.466797,788.741028 
	C622.501953,785.007446 624.906250,783.429993 629.124207,783.925049 
	C632.205505,784.286682 635.363403,783.995850 638.793762,783.995850 
	C638.793762,804.421204 638.793762,824.332642 638.793762,844.624939 
	C633.843323,844.624939 628.936707,844.624939 623.352173,844.624939 
	C623.352173,835.149292 623.352173,825.629211 623.352173,816.109070 
	C622.963623,816.008118 622.575073,815.907166 622.186462,815.806213 
	C618.771912,821.418884 615.384460,827.048340 611.934814,832.639404 
	C608.815674,837.694763 606.368103,837.667114 603.279968,832.576660 
	C599.852661,826.927246 596.455811,821.259277 591.964539,815.809631 
	C591.964539,823.011230 591.964539,830.212891 591.964478,837.901367 
z"/>
<path fill="#A6D9DF" opacity="1.000000" stroke="none" 
	d="
M753.710388,822.714417 
	C751.364929,826.581970 749.286865,830.189575 747.033630,833.684204 
	C744.831604,837.099487 741.919067,837.105164 739.738708,833.636047 
	C736.040771,827.752380 732.506409,821.765930 727.928101,815.974670 
	C727.928101,825.440308 727.928101,834.905945 727.928101,844.681030 
	C722.353577,844.681030 717.462830,844.681030 712.234131,844.681030 
	C712.234131,824.628723 712.234131,804.728271 712.234131,784.066406 
	C716.912415,784.066406 721.682251,783.842285 726.403137,784.224060 
	C727.583252,784.319519 728.841614,786.219299 729.661255,787.539856 
	C734.201355,794.853760 738.616943,802.244934 743.381775,810.116028 
	C748.060364,802.399292 752.530029,795.389526 756.595947,788.153076 
	C758.366272,785.002197 760.380188,783.559631 764.057312,783.923645 
	C767.476929,784.262085 770.956421,783.995850 774.683044,783.995850 
	C774.683044,804.434631 774.683044,824.333923 774.683044,844.619324 
	C769.720398,844.619324 764.816650,844.619324 759.362793,844.619324 
	C759.362793,835.191956 759.362793,825.626343 759.362793,816.060730 
	C758.960022,815.900879 758.557312,815.741089 758.154541,815.581299 
	C756.736755,817.855896 755.318970,820.130432 753.710388,822.714417 
z"/>
<path fill="#A6D9DE" opacity="1.000000" stroke="none" 
	d="
M794.086853,845.005859 
	C791.325745,845.005859 789.050415,845.005859 786.494995,845.005859 
	C786.494995,824.497803 786.494995,804.605408 786.494995,783.508118 
	C798.928711,784.058167 811.290161,783.566833 823.287048,785.426514 
	C835.378601,787.301025 839.294800,802.829529 830.800598,811.755188 
	C830.015076,812.580627 829.153076,813.333252 828.119141,814.317017 
	C833.176331,817.368896 836.010681,821.496765 836.087952,827.359863 
	C836.209167,836.559631 832.101624,842.703918 822.933289,843.877136 
	C813.584656,845.073425 804.034546,844.694946 794.086853,845.005859 
M802.345215,821.880554 
	C802.345215,824.453674 802.345215,827.026855 802.345215,830.019043 
	C806.874939,830.019043 810.971802,830.059998 815.067444,830.004883 
	C817.882629,829.966980 819.903320,828.864014 819.985840,825.685913 
	C820.076477,822.197693 817.860291,821.067383 814.876587,821.044617 
	C810.920288,821.014404 806.962646,821.171692 802.345215,821.880554 
M818.810547,806.543762 
	C820.414612,803.162720 820.324585,799.887817 816.097900,799.267944 
	C811.632690,798.613037 806.996948,799.121033 802.379761,799.121033 
	C802.379761,802.343689 802.379761,804.922852 802.379761,808.496460 
	C807.877869,808.013916 813.042664,807.560730 818.810547,806.543762 
z"/>
<path fill="#A6D9DF" opacity="1.000000" stroke="none" 
	d="
M517.235718,806.710938 
	C518.498108,808.773926 519.582031,810.523926 520.665894,812.273865 
	C520.993591,812.159851 521.321350,812.045837 521.649048,811.931824 
	C521.649048,802.870667 521.649048,793.809509 521.649048,784.378540 
	C526.979248,784.378540 531.850220,784.378540 537.022095,784.378540 
	C537.022095,804.500183 537.022095,824.394470 537.022095,844.982849 
	C532.431091,844.982849 527.972290,845.244019 523.577332,844.828918 
	C522.199341,844.698792 520.626892,842.976013 519.768555,841.593994 
	C514.701538,833.435547 509.818848,825.162537 503.857910,817.092590 
	C503.857910,826.222473 503.857910,835.352295 503.857910,844.733215 
	C498.381622,844.733215 493.607178,844.733215 488.366333,844.733215 
	C488.366333,824.765076 488.366333,804.751160 488.366333,784.026428 
	C492.871185,784.026428 497.479309,783.812012 502.042908,784.168152 
	C503.276794,784.264526 504.695587,785.889587 505.483002,787.153442 
	C509.440613,793.506165 513.217102,799.971863 517.235718,806.710938 
z"/>
<path fill="#A6D9E0" opacity="1.000000" stroke="none" 
	d="
M381.788452,794.030640 
	C381.788330,798.140320 381.788330,801.761536 381.788330,805.683838 
	C387.894043,805.683838 393.460419,805.683838 399.564148,805.683838 
	C399.564148,798.617493 399.564148,791.689392 399.564148,784.385803 
	C404.961426,784.385803 409.832336,784.385803 415.013062,784.385803 
	C415.013062,804.485229 415.013062,824.378540 415.013062,844.637573 
	C410.140503,844.637573 405.396301,844.637573 399.829956,844.637573 
	C399.829956,837.032715 399.829956,829.345215 399.829956,821.380005 
	C393.597870,821.380005 388.177032,821.380005 381.976685,821.380005 
	C381.976685,829.045654 381.976685,836.735779 381.976685,844.702271 
	C376.310730,844.702271 371.418854,844.702271 366.214050,844.702271 
	C366.214050,824.588013 366.214050,804.690430 366.214050,784.394653 
	C371.118347,784.394653 376.021149,784.394653 381.788605,784.394653 
	C381.788605,787.378052 381.788605,790.460144 381.788452,794.030640 
z"/>
<path fill="#A6D9DF" opacity="1.000000" stroke="none" 
	d="
M715.979614,875.983276 
	C711.989929,881.548218 708.387268,886.967957 704.332275,892.024902 
	C701.732788,895.266663 701.575684,897.631409 704.268433,901.034302 
	C710.963135,909.494507 717.208130,918.310608 724.327637,927.920471 
	C717.549683,927.920471 711.683472,928.070618 705.838013,927.789185 
	C704.716431,927.735229 703.503784,926.118835 702.629150,924.993164 
	C698.968445,920.282471 695.420471,915.484314 691.839478,910.729126 
	C684.908081,914.907349 687.664978,921.586792 686.690857,927.581360 
	C681.673584,927.581360 676.649292,927.581360 671.327332,927.581360 
	C671.327332,907.562256 671.327332,887.663696 671.327332,867.379883 
	C676.297791,867.379883 681.201782,867.379883 686.694336,867.379883 
	C686.694336,874.449158 686.694336,881.668152 686.694336,888.887207 
	C687.099243,889.036804 687.504211,889.186401 687.909119,889.335999 
	C691.126831,884.644592 694.895203,880.230164 697.428528,875.194458 
	C700.919373,868.255310 705.970703,865.774780 713.413696,866.932678 
	C715.969604,867.330322 718.639465,866.995850 722.241455,866.995850 
	C719.887939,870.366516 718.031433,873.025452 715.979614,875.983276 
z"/>
<path fill="#A6D9DF" opacity="1.000000" stroke="none" 
	d="
M340.894775,822.102051 
	C346.434998,829.567261 351.768066,836.740967 357.876740,844.958008 
	C351.034607,844.958008 345.321594,845.139648 339.637085,844.817688 
	C338.371857,844.746033 336.995331,843.068054 336.033539,841.844055 
	C332.371155,837.183105 328.857635,832.405151 325.333954,827.731262 
	C318.401520,831.998962 320.963623,838.675415 320.021545,844.629272 
	C315.039032,844.629272 310.166748,844.629272 304.993195,844.629272 
	C304.993195,824.505737 304.993195,804.615662 304.993195,784.360962 
	C309.874084,784.360962 314.616333,784.360962 320.015045,784.360962 
	C320.015045,791.472656 320.015045,798.663391 320.015045,805.854187 
	C320.462006,806.023621 320.908966,806.193115 321.355957,806.362610 
	C324.756378,801.424805 328.617310,796.734314 331.436127,791.484314 
	C334.678955,785.444641 338.953583,782.802734 345.791504,783.919556 
	C348.657318,784.387634 351.663300,783.997437 355.863098,783.997437 
	C351.989166,789.434326 348.770020,793.958252 345.543945,798.477295 
	C343.900818,800.778931 342.241119,803.068787 340.595917,805.368896 
	C334.687042,813.630066 334.688171,813.630859 340.894775,822.102051 
z"/>
<path fill="#A6D9DE" opacity="1.000000" stroke="none" 
	d="
M621.099976,926.091309 
	C613.314575,921.882507 610.679749,914.843445 610.405762,907.157043 
	C609.938538,894.051025 610.276978,880.916321 610.276978,867.394043 
	C615.257385,867.394043 620.160217,867.394043 625.729248,867.394043 
	C625.802429,868.946960 625.949951,870.690125 625.955994,872.433899 
	C625.991577,882.750244 625.914062,893.067810 626.036499,903.382935 
	C626.117432,910.201477 628.758728,913.076477 634.613464,913.206482 
	C640.805908,913.343933 643.630310,910.603027 643.790771,903.477600 
	C644.019287,893.332275 643.888062,883.178894 643.909119,873.028931 
	C643.912781,871.235107 643.909546,869.441284 643.909546,867.322632 
	C649.277893,867.322632 654.176758,867.322632 659.807800,867.322632 
	C659.807800,871.346680 659.844238,875.279968 659.800415,879.212280 
	C659.700378,888.191406 659.802734,897.181335 659.387390,906.146729 
	C658.514404,924.991882 646.319580,930.256714 630.021362,928.705505 
	C627.110291,928.428467 624.299927,927.092834 621.099976,926.091309 
z"/>
<path fill="#A6D9DE" opacity="1.000000" stroke="none" 
	d="
M544.860962,920.114624 
	C545.569458,922.735779 546.178284,924.966003 546.998352,927.969788 
	C541.886597,927.969788 537.171082,928.041016 532.462158,927.897888 
	C531.700073,927.874695 530.355896,926.940308 530.316284,926.356873 
	C529.974487,921.319275 526.436035,921.909973 523.095520,921.995056 
	C520.933838,922.050171 518.755798,922.161560 516.609314,921.973083 
	C512.114136,921.578369 508.100983,921.737610 508.190460,927.775879 
	C502.570007,927.775879 497.454865,927.775879 491.751373,927.775879 
	C494.808838,917.231995 497.766388,907.053345 500.711182,896.871033 
	C503.204163,888.250854 505.796356,879.656738 508.106415,870.987671 
	C508.933167,867.885193 510.361053,866.688965 513.629700,866.926941 
	C518.749756,867.299683 525.248108,865.381531 528.659119,867.868103 
	C532.012085,870.312256 532.377075,876.997742 533.820923,881.890625 
	C537.536316,894.481445 541.123230,907.110229 544.860962,920.114624 
M521.951782,894.617493 
	C521.222656,891.946411 520.493530,889.275330 519.764404,886.604248 
	C519.472290,886.586792 519.180237,886.569336 518.888123,886.551880 
	C517.084106,893.650513 515.280151,900.749146 513.425476,908.047058 
	C517.875549,908.047058 521.370850,908.047058 525.293274,908.047058 
	C524.126587,903.436523 523.112427,899.428833 521.951782,894.617493 
z"/>
<path fill="#A6D9DE" opacity="1.000000" stroke="none" 
	d="
M863.671753,839.173889 
	C859.888550,849.693665 851.444458,843.072998 844.639160,845.506470 
	C846.390686,839.247070 847.814575,834.016785 849.319031,828.809875 
	C853.238586,815.244812 857.265015,801.710022 861.078308,788.115417 
	C861.917358,785.124146 863.139160,783.443054 866.496338,783.957336 
	C867.959045,784.181335 869.484680,783.994507 870.981689,783.994507 
	C882.583313,783.994446 882.584595,783.994080 885.713684,794.909851 
	C890.423889,811.341553 895.132080,827.773743 900.059692,844.968506 
	C894.872314,844.968506 890.151123,845.040222 885.436584,844.895691 
	C884.680664,844.872498 883.349976,843.924011 883.309387,843.333008 
	C882.962280,838.277954 879.397278,838.939575 876.074341,838.994812 
	C872.083496,839.061279 868.091309,839.048096 863.671753,839.173889 
M872.562439,803.677979 
	C870.440002,810.691711 868.317505,817.705505 866.089233,825.068848 
	C870.835632,825.068848 874.337524,825.068848 878.351990,825.068848 
	C876.451294,817.727234 874.706726,810.988525 872.562439,803.677979 
z"/>
<path fill="#A6D9DE" opacity="1.000000" stroke="none" 
	d="
M702.756348,844.146118 
	C697.540649,844.565186 692.425537,844.565186 686.817200,844.565186 
	C686.900085,838.707886 682.863037,838.629517 678.383179,838.966187 
	C675.571228,839.177551 672.723938,839.124695 669.904480,838.971680 
	C667.268005,838.828613 665.534058,839.338379 664.870239,842.371277 
	C664.636475,843.439209 662.746643,844.794067 661.531860,844.880798 
	C657.244873,845.186768 652.922546,844.999817 647.976440,844.999817 
	C650.796204,835.154968 653.457764,825.789307 656.163513,816.436340 
	C658.933533,806.861267 661.826904,797.320862 664.488403,787.715942 
	C665.211548,785.106079 666.202087,783.785828 669.192993,783.925903 
	C674.495056,784.174316 679.817078,783.995605 685.808899,783.995605 
	C691.498596,803.930847 697.177734,823.828918 702.756348,844.146118 
M676.029480,804.088867 
	C675.901855,803.981689 675.787964,803.842468 675.641357,803.779785 
	C675.559387,803.744690 675.339966,803.813477 675.323181,803.874268 
	C673.397766,810.848450 671.485596,817.826294 669.499207,825.072205 
	C673.928528,825.072205 677.438110,825.072205 681.566833,825.072205 
	C679.721741,817.877563 678.035583,811.302612 676.029480,804.088867 
z"/>
<path fill="#A6D9DE" opacity="1.000000" stroke="none" 
	d="
M435.756012,845.005310 
	C431.684967,845.005432 428.075287,845.005432 423.938629,845.005432 
	C428.537201,829.094971 432.953949,813.800110 437.380585,798.508179 
	C438.442688,794.839111 439.737885,791.223450 440.553131,787.501587 
	C441.181305,784.633606 442.622925,783.794922 445.418579,783.944702 
	C450.715118,784.228394 457.434692,782.295898 460.934509,784.864990 
	C464.376892,787.391846 464.661041,794.329895 466.152161,799.385071 
	C470.051971,812.606201 473.861755,825.853943 477.685760,839.097290 
	C478.184875,840.825867 478.556854,842.591064 479.145599,844.979980 
	C474.109253,844.979980 469.510345,845.077209 464.922699,844.893555 
	C464.060791,844.859131 462.587524,843.770996 462.513763,843.054016 
	C462.071686,838.758484 459.208069,838.831238 456.049164,838.978088 
	C453.228302,839.109253 450.394806,839.067505 447.570007,838.989197 
	C444.348206,838.899963 441.234680,838.545715 440.621368,843.178833 
	C440.516907,843.968140 437.752808,844.405334 435.756012,845.005310 
M456.978241,822.685547 
	C455.335663,816.300476 453.693054,809.915405 452.050446,803.530334 
	C451.745148,803.549805 451.439880,803.569336 451.134583,803.588806 
	C449.320160,810.692627 447.505707,817.796448 445.691284,824.900208 
	C446.053162,825.391479 446.415070,825.882751 446.776947,826.374023 
	C450.211334,825.423462 453.645691,824.472839 456.978241,822.685547 
z"/>
<path fill="#A6D9DE" opacity="1.000000" stroke="none" 
	d="
M769.938293,877.019775 
	C774.661438,893.547852 779.301575,909.678101 783.918945,925.814819 
	C784.048950,926.269226 783.935364,926.793274 783.935364,927.983826 
	C779.275818,927.983826 774.699097,928.078796 770.133423,927.897034 
	C769.304993,927.863953 767.888672,926.758301 767.821045,926.045654 
	C767.408813,921.698792 764.491760,921.890564 761.347534,921.973816 
	C756.712646,922.096497 752.072144,922.005554 747.427979,922.005554 
	C746.708313,924.067932 746.115173,925.767883 745.432800,927.723511 
	C740.356323,927.723511 735.260559,927.723511 729.684875,927.723511 
	C730.004272,926.069885 730.168396,924.624329 730.567139,923.246765 
	C735.604065,905.846069 740.775024,888.483093 745.646606,871.036499 
	C746.543823,867.823303 747.930481,866.599670 751.133606,866.958313 
	C752.941345,867.160645 754.790283,866.994568 756.620667,866.994568 
	C766.904114,866.994507 766.904114,866.994507 769.938293,877.019775 
M751.835083,904.222168 
	C751.594360,905.463318 751.353638,906.704468 751.087280,908.077637 
	C755.134644,908.077637 758.779663,908.077637 762.851868,908.077637 
	C760.919800,900.581604 759.137878,893.668152 757.355957,886.754700 
	C757.024841,886.784424 756.693726,886.814148 756.362671,886.843811 
	C754.906006,892.370422 753.449280,897.897034 751.835083,904.222168 
z"/>
<path fill="#A6D9DD" opacity="1.000000" stroke="none" 
	d="
M586.556519,867.240479 
	C590.568054,868.932922 594.184326,870.521362 598.223938,872.295898 
	C595.928467,877.002869 593.923340,881.114563 592.232239,884.582214 
	C586.564758,883.225891 581.662720,881.817993 576.663696,881.009338 
	C575.289734,880.787109 573.625916,882.356628 572.095154,883.103943 
	C573.112976,884.623291 573.790710,886.749817 575.213257,887.546631 
	C579.262085,889.814514 583.722534,891.337585 587.825134,893.521606 
	C596.509277,898.144592 600.291016,905.421448 598.766907,913.938660 
	C597.326721,921.987000 591.614319,927.006287 581.997192,928.673767 
	C573.239746,930.192261 562.014954,927.479370 554.002258,921.639099 
	C556.048218,917.524109 558.147522,913.301880 559.824768,909.928406 
	C566.002441,911.435791 571.507019,913.070679 577.129333,913.969910 
	C578.778259,914.233704 580.761230,912.408508 582.591064,911.540649 
	C581.337463,909.951538 580.391724,907.852539 578.769897,906.873352 
	C574.652344,904.387451 570.108887,902.612549 565.958374,900.174316 
	C557.496033,895.202759 554.209778,888.218811 555.992249,879.778564 
	C557.545288,872.424622 564.433472,866.907349 573.778625,866.251526 
	C577.865295,865.964661 582.031250,866.807007 586.556519,867.240479 
z"/>
<path fill="#A6D8DD" opacity="1.000000" stroke="none" 
	d="
M647.220337,450.280884 
	C648.497009,448.979095 649.529968,447.924713 651.466003,445.948578 
	C651.466003,452.063660 651.636841,457.084442 651.333008,462.076324 
	C651.266052,463.176819 649.697266,464.488861 648.513428,465.172516 
	C633.395752,473.903229 618.256165,482.598328 603.004395,491.090881 
	C601.641052,491.849976 599.070984,491.796722 597.713745,491.003937 
	C582.925659,482.365753 568.208191,473.600647 553.654968,464.574310 
	C551.969360,463.528870 550.742371,460.787689 550.445068,458.672150 
	C549.927734,454.991241 550.301208,451.185120 550.301208,447.266022 
	C557.886902,453.142822 564.850159,458.688843 571.981323,464.009918 
	C576.888672,467.671692 582.470276,469.681732 588.691833,469.691193 
	C597.839905,469.705109 607.037537,470.345245 616.114929,469.564880 
	C620.656799,469.174408 625.397705,466.865387 629.304871,464.294037 
	C635.522339,460.202240 641.117981,455.165436 647.220337,450.280884 
z"/>
<path fill="#A6D9DD" opacity="1.000000" stroke="none" 
	d="
M662.732178,477.781311 
	C652.484924,492.683136 642.440491,507.294281 632.574768,521.645508 
	C625.182373,514.478149 618.088135,507.599854 610.535156,500.276825 
	C619.599915,495.061371 628.464844,489.963318 637.327332,484.860992 
	C643.372498,481.380707 649.298157,477.664673 655.514526,474.523743 
	C658.005066,473.265442 661.132324,473.267181 663.969727,472.695343 
	C664.188232,473.213745 664.406799,473.732117 664.625366,474.250488 
	C664.061890,475.330536 663.498413,476.410583 662.732178,477.781311 
z"/>
<path fill="#A6D9DE" opacity="1.000000" stroke="none" 
	d="
M546.852661,489.162872 
	C543.497192,484.183319 540.334473,479.508057 536.998901,474.577271 
	C540.425415,472.192169 543.216553,471.822998 546.946960,474.149597 
	C559.635986,482.063568 572.595581,489.543488 585.438477,497.211578 
	C587.106079,498.207245 588.695312,499.334137 590.882629,500.768707 
	C583.404968,507.811951 576.335266,514.470947 568.828613,521.541443 
	C561.367737,510.555786 554.206604,500.011475 546.852661,489.162872 
z"/>
<path fill="#A6D8DD" opacity="1.000000" stroke="none" 
	d="
M548.896362,816.000000 
	C548.896301,805.210449 548.896301,794.920898 548.896301,784.314697 
	C554.285278,784.314697 559.186829,784.314697 564.445190,784.314697 
	C564.445190,804.352356 564.445190,824.255188 564.445190,844.584595 
	C559.538513,844.584595 554.650452,844.584595 548.896423,844.584595 
	C548.896423,835.320801 548.896423,825.910400 548.896362,816.000000 
z"/>
<path fill="#A6D9DF" opacity="1.000000" stroke="none" 
	d="
M584.079956,525.550781 
	C584.566284,523.938477 584.747620,522.451477 585.583679,521.633789 
	C590.437988,516.886047 595.446350,512.295776 600.917419,507.169830 
	C606.422791,512.796021 612.435181,517.585388 616.532898,523.665283 
	C618.784119,527.005554 617.809875,532.519653 618.343323,537.558105 
	C606.704956,537.558105 595.817810,537.558105 584.077454,537.558105 
	C584.077454,533.817566 584.077454,529.901428 584.079956,525.550781 
z"/>
<path fill="#A7D8D8" opacity="1.000000" stroke="none" 
	d="
M742.168945,739.945129 
	C742.168945,739.945129 742.476135,739.979980 742.627319,740.011047 
	C757.729004,740.069153 772.681030,739.998047 787.628296,740.228333 
	C789.891602,740.263245 792.555725,741.212341 794.233398,742.664246 
	C795.315613,743.600769 795.830872,747.059265 795.027161,747.921875 
	C793.325378,749.748291 790.619873,751.645752 788.279785,751.705566 
	C774.666443,752.053162 761.039795,751.876770 747.417603,751.877258 
	C741.162903,751.877502 734.908203,751.877319 729.411743,751.877319 
	C732.988525,748.977844 736.878906,745.824097 741.143677,742.167480 
	C741.734985,741.091431 741.951965,740.518250 742.168945,739.945129 
z"/>
<path fill="#A7D8D8" opacity="1.000000" stroke="none" 
	d="
M458.691193,740.070801 
	C459.171478,740.038025 459.540741,739.991638 459.748840,740.291992 
	C460.274963,741.102356 460.592957,741.612305 460.910950,742.122314 
	C464.811401,745.496643 468.711884,748.870972 472.171753,751.864136 
	C453.045471,751.864136 432.853729,751.900696 412.662354,751.832458 
	C408.753082,751.819275 406.152435,749.621704 406.375214,745.671265 
	C406.598572,741.710999 409.504791,740.119446 413.338165,740.120911 
	C428.295746,740.126770 443.253326,740.111145 458.691193,740.070801 
z"/>
<path fill="#B8C651" opacity="1.000000" stroke="none" 
	d="
M460.948120,741.814697 
	C460.592957,741.612305 460.274963,741.102356 459.934570,740.280518 
	C460.111298,740.001831 460.310394,740.034912 460.794373,740.170776 
	C461.047974,740.684753 461.016632,741.095886 460.948120,741.814697 
z"/>
<path fill="#B8C651" opacity="1.000000" stroke="none" 
	d="
M741.850464,740.006104 
	C741.951965,740.518250 741.734985,741.091431 741.276978,741.857971 
	C741.001282,741.657349 740.966492,741.263367 740.924927,740.572937 
	C741.122681,740.206787 741.327271,740.136963 741.850464,740.006104 
z"/>
<path fill="#A7D8D8" opacity="1.000000" stroke="none" 
	d="
M549.178345,444.153625 
	C549.122253,443.959015 549.560486,443.976135 549.779419,443.988068 
	C549.743652,444.116089 549.489014,444.232178 549.178345,444.153625 
z"/>
<path fill="#BDC126" opacity="1.000000" stroke="none" 
	d="
M564.167603,630.149902 
	C550.189209,640.328186 536.501892,650.297241 522.240051,660.684753 
	C533.492859,668.921753 544.190491,676.746277 554.881104,684.580261 
	C559.848328,688.220215 564.784058,691.903137 569.768372,695.519409 
	C573.031006,697.886597 574.610718,700.860046 572.074463,704.438110 
	C569.392456,708.221741 565.926147,707.015869 562.868774,704.803284 
	C549.925293,695.436890 537.049011,685.977661 524.143921,676.558167 
	C520.110535,673.614258 516.031555,670.731934 512.030762,667.744690 
	C504.879272,662.404846 504.809937,659.083618 511.892365,653.924133 
	C526.688965,643.144836 541.547913,632.451294 556.383606,621.725769 
	C558.946167,619.873169 561.458069,617.940979 564.105835,616.218506 
	C566.999084,614.336304 570.017273,614.437622 572.102844,617.285461 
	C574.332214,620.329651 573.414673,623.320068 570.559387,625.601196 
	C568.612610,627.156372 566.498169,628.501648 564.167603,630.149902 
z"/>
<path fill="#BDC126" opacity="1.000000" stroke="none" 
	d="
M671.422974,640.585815 
	C678.285461,645.618042 684.897522,650.385803 691.443237,655.242920 
	C696.484375,658.983521 696.634644,662.763000 691.602478,666.446899 
	C673.886108,679.416626 656.068420,692.247925 638.294739,705.139465 
	C635.331360,707.288757 632.335083,707.708374 629.965149,704.544128 
	C627.284668,700.965210 628.879395,697.811279 631.982361,695.511841 
	C642.672546,687.589905 653.474792,679.819336 664.230896,671.986389 
	C669.066650,668.464722 673.894226,664.931824 679.326904,660.964844 
	C677.788147,659.713196 676.502808,658.570801 675.121704,657.559204 
	C661.031921,647.239563 646.926697,636.941223 632.825684,626.637024 
	C632.691345,626.538818 632.560303,626.435181 632.420227,626.345947 
	C629.003845,624.168396 627.529785,621.252747 629.673523,617.495056 
	C631.451599,614.378296 635.327576,614.300293 639.275208,617.158508 
	C649.918335,624.864441 660.523682,632.622498 671.422974,640.585815 
z"/>
<path fill="#BDC126" opacity="1.000000" stroke="none" 
	d="
M597.084839,692.151245 
	C595.321045,698.819275 593.521423,705.060120 591.999268,711.367920 
	C591.091736,715.128296 589.216492,717.683655 585.155457,716.932861 
	C580.801758,716.128113 579.719971,712.775635 580.741089,708.897400 
	C584.724548,693.768616 588.851379,678.677673 592.920959,663.571594 
	C598.289551,643.643982 603.635071,623.710144 609.033875,603.790771 
	C610.458191,598.535400 613.907043,596.310425 617.597168,598.290344 
	C621.243530,600.246948 621.115234,603.362061 620.140320,606.932007 
	C612.423096,635.189270 604.810486,663.475159 597.084839,692.151245 
z"/>
<path fill="#BDC126" opacity="1.000000" stroke="none" 
	d="
M802.675415,821.564453 
	C806.962646,821.171692 810.920288,821.014404 814.876587,821.044617 
	C817.860291,821.067383 820.076477,822.197693 819.985840,825.685913 
	C819.903320,828.864014 817.882629,829.966980 815.067444,830.004883 
	C810.971802,830.059998 806.874939,830.019043 802.345215,830.019043 
	C802.345215,827.026855 802.345215,824.453674 802.675415,821.564453 
z"/>
<path fill="#BDC126" opacity="1.000000" stroke="none" 
	d="
M818.509033,806.825623 
	C813.042664,807.560730 807.877869,808.013916 802.379761,808.496460 
	C802.379761,804.922852 802.379761,802.343689 802.379761,799.121033 
	C806.996948,799.121033 811.632690,798.613037 816.097900,799.267944 
	C820.324585,799.887817 820.414612,803.162720 818.509033,806.825623 
z"/>
<path fill="#BCC129" opacity="1.000000" stroke="none" 
	d="
M522.025024,895.019348 
	C523.112427,899.428833 524.126587,903.436523 525.293274,908.047058 
	C521.370850,908.047058 517.875549,908.047058 513.425476,908.047058 
	C515.280151,900.749146 517.084106,893.650513 518.888123,886.551880 
	C519.180237,886.569336 519.472290,886.586792 519.764404,886.604248 
	C520.493530,889.275330 521.222656,891.946411 522.025024,895.019348 
z"/>
<path fill="#BCC129" opacity="1.000000" stroke="none" 
	d="
M872.762329,803.963928 
	C874.706726,810.988525 876.451294,817.727234 878.351990,825.068848 
	C874.337524,825.068848 870.835632,825.068848 866.089233,825.068848 
	C868.317505,817.705505 870.440002,810.691711 872.762329,803.963928 
z"/>
<path fill="#BCC129" opacity="1.000000" stroke="none" 
	d="
M676.189453,804.408203 
	C678.035583,811.302612 679.721741,817.877563 681.566833,825.072205 
	C677.438110,825.072205 673.928528,825.072205 669.499207,825.072205 
	C671.485596,817.826294 673.397766,810.848450 675.323181,803.874268 
	C675.339966,803.813477 675.559387,803.744690 675.641357,803.779785 
	C675.787964,803.842468 675.901855,803.981689 676.189453,804.408203 
z"/>
<path fill="#BCC129" opacity="1.000000" stroke="none" 
	d="
M457.029175,823.103882 
	C453.645691,824.472839 450.211334,825.423462 446.776947,826.374023 
	C446.415070,825.882751 446.053162,825.391479 445.691284,824.900208 
	C447.505707,817.796448 449.320160,810.692627 451.134583,803.588806 
	C451.439880,803.569336 451.745148,803.549805 452.050446,803.530334 
	C453.693054,809.915405 455.335663,816.300476 457.029175,823.103882 
z"/>
<path fill="#BCC129" opacity="1.000000" stroke="none" 
	d="
M751.913818,903.822876 
	C753.449280,897.897034 754.906006,892.370422 756.362671,886.843811 
	C756.693726,886.814148 757.024841,886.784424 757.355957,886.754700 
	C759.137878,893.668152 760.919800,900.581604 762.851868,908.077637 
	C758.779663,908.077637 755.134644,908.077637 751.087280,908.077637 
	C751.353638,906.704468 751.594360,905.463318 751.913818,903.822876 
z"/>
</svg>