<svg version="1.1" id="Layer_1" xmlns="http://www.w3.org/2000/svg" xmlns:xlink="http://www.w3.org/1999/xlink" x="0px" y="0px"
	 width="100%" viewBox="0 0 1200 1200" enable-background="new 0 0 1200 1200" xml:space="preserve">
<path fill="#279AC3" opacity="1.000000" stroke="none" 
	d="
M695.000000,1201.000000 
	C463.333344,1201.000000 232.166672,1201.000000 1.000000,1201.000000 
	C1.000000,801.000000 1.000000,401.000000 1.000000,1.000000 
	C401.000000,1.000000 801.000000,1.000000 1201.000000,1.000000 
	C1201.000000,401.000000 1201.000000,801.000000 1201.000000,1201.000000 
	C1032.500000,1201.000000 864.000000,1201.000000 695.000000,1201.000000 
M841.500000,205.000397 
	C652.172791,205.000427 462.845581,205.000305 273.518372,205.001099 
	C265.809570,205.001129 265.800751,205.005142 265.800720,212.380371 
	C265.799194,471.538391 265.799194,730.696411 265.801147,989.854431 
	C265.801208,996.988159 265.812500,996.997681 272.753174,996.998047 
	C326.418060,997.000916 380.082916,996.999939 433.747803,996.999878 
	C598.908936,996.999817 764.070129,997.000061 929.231262,996.998169 
	C936.177673,996.998108 936.194885,996.988403 936.197266,990.369873 
	C936.205444,967.537292 936.200623,944.704712 936.200623,921.872131 
	C936.200623,685.380005 936.200928,448.887939 936.199341,212.395844 
	C936.199280,205.015732 936.190735,205.003876 929.497070,205.002747 
	C900.498047,204.997864 871.499023,205.000488 841.500000,205.000397 
z"/>
<path fill="#A6D9DF" opacity="1.000000" stroke="none" 
	d="
M842.000000,205.000397 
	C871.499023,205.000488 900.498047,204.997864 929.497070,205.002747 
	C936.190735,205.003876 936.199280,205.015732 936.199341,212.395844 
	C936.200928,448.887939 936.200623,685.380005 936.200623,921.872131 
	C936.200623,944.704712 936.205444,967.537292 936.197266,990.369873 
	C936.194885,996.988403 936.177673,996.998108 929.231262,996.998169 
	C764.070129,997.000061 598.908936,996.999817 433.747803,996.999878 
	C380.082916,996.999939 326.418060,997.000916 272.753174,996.998047 
	C265.812500,996.997681 265.801208,996.988159 265.801147,989.854431 
	C265.799194,730.696411 265.799194,471.538391 265.800720,212.380371 
	C265.800751,205.005142 265.809570,205.001129 273.518372,205.001099 
	C462.845581,205.000305 652.172791,205.000427 842.000000,205.000397 
M303.501373,977.033081 
	C507.573486,977.033081 711.645630,977.033081 915.856079,977.033081 
	C915.856079,726.030457 915.856079,475.707275 915.856079,225.306671 
	C705.701538,225.306671 495.991913,225.306671 286.144165,225.306671 
	C286.144165,475.969940 286.144165,726.293152 286.144165,977.033081 
	C291.888672,977.033081 297.195374,977.033081 303.501373,977.033081 
z"/>
<path fill="#BDC022" opacity="1.000000" stroke="none" 
	d="
M303.001709,977.033081 
	C297.195374,977.033081 291.888672,977.033081 286.144165,977.033081 
	C286.144165,726.293152 286.144165,475.969940 286.144165,225.306671 
	C495.991913,225.306671 705.701538,225.306671 915.856079,225.306671 
	C915.856079,475.707275 915.856079,726.030457 915.856079,977.033081 
	C711.645630,977.033081 507.573486,977.033081 303.001709,977.033081 
M460.986206,741.512390 
	C461.018005,741.100525 461.049774,740.688721 462.005310,740.196838 
	C541.980835,740.185608 621.956299,740.169067 701.931824,740.168518 
	C714.926575,740.168457 727.921387,740.239441 740.919739,740.871155 
	C740.958740,741.264893 740.997742,741.658691 740.770203,742.671936 
	C736.871948,745.844727 732.973633,749.017456 729.476257,751.863953 
	C740.420959,751.863953 752.320618,751.866028 764.220276,751.863342 
	C772.529785,751.861450 780.839722,751.898254 789.148682,751.826904 
	C792.789917,751.795654 795.434509,749.960266 795.536682,746.244934 
	C795.645691,742.281921 793.044495,740.314941 789.137146,740.159058 
	C787.809570,740.106140 786.478455,740.139343 785.148987,740.136353 
	C771.023560,740.104309 756.898193,740.072998 742.938293,739.256226 
	C743.586792,736.010864 744.791870,732.766968 744.800171,729.519958 
	C744.922363,681.704163 744.948364,633.887695 744.847595,586.071716 
	C744.817566,571.815918 735.814087,563.172852 721.492249,563.170776 
	C641.187744,563.158875 560.883179,563.159058 480.578644,563.170410 
	C465.718811,563.172485 457.111115,571.884338 457.109161,586.864929 
	C457.103088,633.348267 457.049286,679.831787 457.197021,726.314636 
	C457.211548,730.891235 458.485016,735.463928 458.215912,740.109985 
	C443.260925,740.121155 428.305939,740.126587 413.350952,740.147339 
	C409.295135,740.153015 406.316986,741.897827 406.424286,746.195679 
	C406.523621,750.175171 409.384644,751.862061 413.242462,751.857483 
	C416.565796,751.853577 419.889160,751.863403 423.212494,751.863586 
	C439.915619,751.864319 456.618774,751.863953 472.139709,751.863953 
	C468.716156,748.896240 464.812256,745.512085 460.986206,741.512390 
M550.481628,448.680756 
	C550.440979,452.173004 550.024658,455.718018 550.504639,459.137177 
	C550.779968,461.098633 552.051453,463.597931 553.656372,464.589325 
	C568.222961,473.587280 582.926819,482.366150 597.709534,491.005432 
	C599.062683,491.796295 601.623718,491.855316 602.981140,491.099640 
	C618.229919,482.610413 633.373230,473.930298 648.471802,465.175446 
	C649.731689,464.444916 651.212708,462.854279 651.303955,461.571716 
	C651.641296,456.831207 651.438171,452.052216 651.438171,447.219055 
	C644.317932,452.846252 637.761353,458.386505 630.820740,463.394562 
	C625.705078,467.085785 620.163940,470.160950 613.420105,469.997253 
	C605.604736,469.807556 597.783875,469.837555 589.965271,469.798462 
	C583.459351,469.765961 577.404480,468.148712 572.231689,464.155304 
	C565.408325,458.887756 558.767212,453.384186 551.833557,447.528351 
	C551.465698,447.650452 551.097778,447.772552 550.481628,448.680756 
M550.327026,443.364868 
	C553.072815,436.941315 556.782654,436.343597 561.378540,441.271729 
	C562.258362,442.215149 564.497986,442.576874 565.878479,442.244507 
	C571.034241,441.003326 576.004272,438.810760 581.204895,437.968018 
	C601.598877,434.663300 622.055115,436.544769 642.504883,437.699005 
	C647.308899,437.970154 650.926880,439.151489 652.228333,445.903534 
	C653.327515,444.046204 653.670776,443.263123 654.188721,442.620880 
	C665.553833,428.528412 673.157166,412.537201 677.793335,395.133698 
	C678.306946,393.205933 677.520874,390.515961 676.482117,388.657593 
	C669.184143,375.600555 659.156311,364.720459 648.813782,354.040100 
	C644.887939,349.986053 640.564331,347.973267 635.169128,348.077332 
	C619.536438,348.378967 603.882812,348.429077 588.287964,349.394592 
	C583.206726,349.709167 580.338257,348.242249 577.248474,344.653687 
	C570.449585,336.757111 563.209045,329.240784 555.814026,321.205536 
	C552.381653,324.955109 549.451294,327.702301 547.052368,330.853973 
	C535.523682,346.000092 527.960449,363.175323 521.856995,381.057953 
	C521.449158,382.252716 521.268250,383.704773 521.527710,384.920685 
	C526.179016,406.716705 534.379578,426.872131 549.237976,444.340942 
	C549.491333,444.227264 549.744690,444.113586 550.327026,443.364868 
M589.509277,549.160095 
	C585.843018,549.154053 582.176819,549.151672 578.510559,549.140869 
	C574.850708,549.130188 572.944824,547.232971 572.819641,543.632812 
	C572.722839,540.850098 572.800293,538.061340 572.800293,534.542725 
	C566.878662,537.769470 563.831055,534.801392 561.079834,530.717712 
	C549.911316,514.140259 538.622192,497.643829 527.514954,481.025665 
	C525.738647,478.368042 524.122803,477.562347 520.983826,478.746826 
	C515.854126,480.682495 510.481018,481.961426 505.289062,483.745789 
	C486.984894,490.036560 468.852814,496.736938 453.584747,509.175812 
	C445.908661,515.429443 439.796417,522.988892 438.165161,532.992798 
	C430.287781,581.302551 422.595459,629.642761 414.943726,677.988953 
	C412.264313,694.918457 427.975769,713.543884 445.786743,714.403564 
	C445.786743,712.237366 445.786652,710.088440 445.786743,707.939514 
	C445.788696,667.111511 445.763947,626.283508 445.804108,585.455505 
	C445.823425,565.819458 459.256042,551.943237 478.991821,551.909302 
	C560.314270,551.769226 641.637207,551.797974 722.959473,551.981140 
	C727.807312,551.992065 733.062744,553.019348 737.419312,555.075989 
	C750.496826,561.249390 756.235474,572.253174 756.221436,586.551147 
	C756.181335,627.379150 756.207458,668.207092 756.224731,709.035095 
	C756.225525,710.936462 756.393066,712.837646 756.511047,715.333435 
	C767.636658,711.146606 777.637390,706.404541 783.938965,696.923096 
	C786.385254,693.242188 787.916870,687.719360 787.281677,683.417053 
	C781.519348,644.384338 775.186218,605.435974 769.017334,566.463318 
	C767.351318,555.938171 765.721802,545.406921 763.993469,534.891968 
	C761.365723,518.904907 750.361755,509.484863 737.531677,501.648651 
	C720.170288,491.044891 700.910767,485.070648 681.705383,478.936005 
	C678.057068,477.770660 676.100647,478.342224 673.947144,481.546631 
	C662.705627,498.274200 651.136536,514.781738 639.899719,531.512390 
	C637.294373,535.391541 634.718445,538.343079 629.386536,536.616577 
	C629.301636,538.048035 629.213135,539.030151 629.189636,540.013855 
	C628.987976,548.482178 628.327759,549.150696 620.002502,549.157776 
	C610.170471,549.166138 600.338379,549.160034 589.509277,549.160095 
M617.727722,262.695984 
	C608.251648,262.464966 598.731750,261.548096 589.309082,262.151215 
	C571.789795,263.272522 556.325623,269.710022 543.938477,282.570618 
	C530.009155,297.032318 522.843750,314.688507 519.991516,334.250854 
	C518.986511,341.143494 518.669495,348.136414 518.038391,355.083557 
	C518.483826,355.153839 518.929260,355.224152 519.374634,355.294464 
	C519.916382,354.118378 520.437622,352.932404 521.002808,351.767731 
	C528.471985,336.376160 537.333069,322.002533 550.558777,310.737427 
	C554.066162,307.750000 557.150269,307.378204 560.554138,310.868561 
	C568.454712,318.969849 576.576416,326.858032 584.372803,335.056671 
	C586.434753,337.225037 588.248291,337.756165 591.227966,337.670929 
	C607.509155,337.205292 623.811157,336.800049 640.084961,337.209290 
	C644.131226,337.311066 648.675232,339.790222 651.974915,342.440765 
	C657.524780,346.898865 662.435852,352.208038 667.291199,357.459167 
	C672.224487,362.794586 676.765442,368.492767 681.768433,374.373199 
	C682.134338,372.880035 682.548767,371.806091 682.645142,370.704346 
	C684.420166,350.415375 683.480469,330.384033 675.895325,311.200439 
	C665.487732,284.878723 647.516785,267.323608 617.727722,262.695984 
M639.117126,824.499756 
	C639.117126,811.097107 639.117126,797.694397 639.117126,783.995667 
	C635.249084,783.995667 632.221252,784.318726 629.291382,783.920593 
	C624.809509,783.311462 622.390625,785.185120 620.299805,789.026489 
	C616.501465,796.004700 612.144226,802.678772 607.646790,810.095642 
	C602.772644,802.071289 598.366943,794.662415 593.763855,787.378174 
	C592.894653,786.002686 591.317322,784.296936 589.933777,784.167664 
	C585.523071,783.755737 581.049561,784.015015 576.442017,784.015015 
	C576.442017,804.610901 576.442017,824.633728 576.442017,844.624146 
	C581.755615,844.624146 586.656250,844.624146 592.245239,844.624146 
	C592.245239,834.824463 592.245239,825.394958 592.245239,815.965454 
	C596.273987,820.967896 599.744019,825.898376 602.367065,831.244446 
	C605.495605,837.620789 609.546936,838.004150 613.016907,831.066040 
	C615.641235,825.818787 619.056335,820.967041 622.119568,815.939270 
	C622.516602,816.058472 622.913696,816.177673 623.310791,816.296875 
	C623.310791,825.679810 623.310791,835.062683 623.310791,844.681763 
	C628.812744,844.681763 633.698975,844.681763 639.117126,844.681763 
	C639.117126,838.077515 639.117126,831.788513 639.117126,824.499756 
M435.962524,918.448181 
	C435.962524,911.938660 435.962524,905.429077 435.962524,898.919556 
	C440.578186,904.448792 443.978577,910.148865 447.442413,915.810181 
	C450.280518,920.448669 452.969696,920.453003 455.828857,915.819702 
	C459.281036,910.225464 462.665802,904.589600 466.079742,898.971741 
	C466.519073,899.067749 466.958405,899.163696 467.397736,899.259644 
	C467.397736,908.747681 467.397736,918.235779 467.397736,927.718262 
	C472.977264,927.718262 477.744965,927.718262 482.710510,927.718262 
	C482.710510,907.411438 482.710510,887.392700 482.710510,867.399780 
	C481.836578,867.226196 481.361420,867.069153 480.879639,867.045288 
	C467.818207,866.397156 467.820496,866.400879 461.078339,877.541260 
	C458.052460,882.541016 455.014648,887.533630 451.630432,893.109009 
	C446.582184,884.788818 442.136658,877.370544 437.569244,870.028137 
	C436.842529,868.859802 435.619629,867.253235 434.537964,867.181702 
	C429.810669,866.868835 425.050873,867.047058 420.408783,867.047058 
	C420.408783,887.781006 420.408783,907.685303 420.408783,927.658325 
	C425.687439,927.658325 430.587433,927.658325 435.962524,927.658325 
	C435.962524,924.688782 435.962524,922.059387 435.962524,918.448181 
M765.635864,783.995667 
	C760.889587,783.091736 758.088440,785.070190 755.825745,789.354248 
	C752.185730,796.245850 747.844543,802.767151 743.384094,810.130920 
	C738.566101,802.170959 734.192749,794.743713 729.569092,787.475708 
	C728.636902,786.010315 726.843933,784.331543 725.295837,784.165039 
	C721.061218,783.709534 716.745483,784.008179 712.310486,784.008179 
	C712.310486,804.610168 712.310486,824.630371 712.310486,844.562927 
	C717.616577,844.562927 722.492249,844.562927 727.999878,844.562927 
	C727.999878,834.803162 727.999878,825.474854 727.999878,816.146545 
	C732.428833,821.613953 735.807190,827.304504 739.273438,832.940979 
	C741.989502,837.357666 744.684570,837.401123 747.387024,833.104797 
	C749.514526,829.722595 751.521118,826.264587 753.631287,822.871216 
	C755.100281,820.508972 756.653931,818.199402 758.169739,815.866272 
	C758.550354,816.021545 758.931030,816.176819 759.311646,816.332092 
	C759.311646,825.754944 759.311646,835.177795 759.311646,844.656067 
	C764.709412,844.656067 769.609497,844.656067 774.690308,844.656067 
	C774.690308,824.402222 774.690308,804.497375 774.690308,783.995667 
	C771.804016,783.995667 769.190002,783.995667 765.635864,783.995667 
M827.039917,842.826782 
	C832.185730,840.555420 835.180359,836.626587 835.924622,831.063477 
	C836.879517,823.925964 834.708374,818.080261 828.049805,814.197754 
	C834.961670,808.828857 836.405457,802.201721 834.140198,794.683289 
	C831.923340,787.325317 825.726257,784.781433 819.062927,784.433350 
	C808.339783,783.873169 797.565918,784.282959 786.680237,784.282959 
	C786.680237,804.664185 786.680237,824.669617 786.680237,845.006042 
	C793.602722,845.006042 800.093994,845.257202 806.556885,844.936096 
	C813.152405,844.608398 819.720032,843.718567 827.039917,842.826782 
M515.931396,804.534912 
	C512.432007,798.679382 508.984711,792.791565 505.389252,786.995605 
	C504.669342,785.835083 503.435150,784.256653 502.352020,784.185730 
	C497.630280,783.876770 492.876801,784.052979 488.275757,784.052979 
	C488.275757,804.796814 488.275757,824.690247 488.275757,844.603882 
	C493.539673,844.603882 498.417725,844.603882 503.947998,844.603882 
	C503.947998,835.232910 503.947998,826.250488 503.947998,817.268066 
	C509.907501,825.310852 514.802795,833.575317 519.845825,841.748840 
	C520.638184,843.033081 522.034424,844.721619 523.264221,844.820557 
	C527.820557,845.187073 532.424133,844.966492 536.972229,844.966492 
	C536.972229,824.254761 536.972229,804.370239 536.972229,784.289917 
	C531.825623,784.289917 527.085022,784.289917 521.502563,784.289917 
	C521.502563,793.632019 521.502563,802.713440 521.502563,811.794922 
	C521.145142,811.826172 520.787781,811.857483 520.430359,811.888794 
	C519.048401,809.648254 517.666504,807.407654 515.931396,804.534912 
M365.897797,788.674316 
	C365.897797,807.267029 365.897797,825.859680 365.897797,844.677490 
	C371.403229,844.677490 376.287231,844.677490 381.810974,844.677490 
	C381.810974,836.802429 381.810974,829.236206 381.810974,821.449829 
	C387.989471,821.449829 393.523346,821.449829 399.729858,821.449829 
	C399.729858,829.361694 399.729858,836.924500 399.729858,844.560303 
	C405.273315,844.560303 410.133789,844.560303 414.959351,844.560303 
	C414.959351,824.232239 414.959351,804.348999 414.959351,784.301147 
	C409.799774,784.301147 405.058929,784.301147 399.545288,784.301147 
	C399.545288,791.615540 399.545288,798.656250 399.545288,805.559082 
	C393.203949,805.559082 387.646423,805.559082 381.534729,805.559082 
	C381.534729,798.203918 381.534729,791.283020 381.534729,784.007935 
	C376.987793,784.007935 373.004852,784.136902 369.034973,783.965149 
	C366.109131,783.838562 365.743164,785.465881 365.897797,788.674316 
M671.037354,898.500000 
	C671.037354,908.243286 671.037354,917.986633 671.037354,927.604248 
	C676.808228,927.604248 681.709961,927.604248 686.643433,927.604248 
	C687.728760,921.646790 684.884827,914.913452 691.822449,910.706970 
	C695.374023,915.421326 698.921997,920.212646 702.576172,924.921631 
	C703.455505,926.054810 704.648193,927.712219 705.763367,927.766724 
	C711.609802,928.052368 717.477661,927.900208 724.317322,927.900208 
	C717.564148,918.785889 711.820129,910.411438 705.390686,902.601318 
	C701.821716,898.265930 701.504395,895.227661 705.171387,890.731995 
	C711.108521,883.453003 716.282288,875.551392 722.046509,867.540161 
	C710.571533,865.924683 700.578491,865.428589 695.472961,878.055725 
	C693.827393,882.125610 690.504761,885.517456 687.949341,889.219482 
	C687.544250,889.042236 687.139160,888.864990 686.734070,888.687744 
	C686.734070,881.598877 686.734070,874.510010 686.734070,867.325500 
	C681.343201,867.325500 676.443848,867.325500 671.037354,867.325500 
	C671.037354,877.598145 671.037354,887.549072 671.037354,898.500000 
M337.263702,817.187988 
	C334.664398,814.789124 335.115051,812.651489 337.177185,809.919617 
	C343.346375,801.746765 349.210876,793.343872 355.938019,783.997559 
	C350.051880,783.997559 345.455994,784.176758 340.882477,783.934082 
	C337.865814,783.774170 335.990356,784.793213 334.349365,787.328125 
	C330.228790,793.693237 325.837311,799.883118 321.554504,806.143250 
	C321.117157,806.038574 320.679840,805.933899 320.242493,805.829163 
	C320.242493,798.664673 320.242493,791.500122 320.242493,784.351196 
	C314.663513,784.351196 309.920715,784.351196 304.982147,784.351196 
	C304.982147,804.606262 304.982147,824.506470 304.982147,844.604431 
	C310.198822,844.604431 315.071991,844.604431 320.010620,844.604431 
	C321.129059,838.676819 318.319977,831.916382 325.356445,827.749878 
	C328.911530,832.467529 332.452209,837.246216 336.096710,841.944397 
	C336.974182,843.075439 338.156860,844.738220 339.265900,844.792542 
	C345.099548,845.078064 350.954620,844.926208 357.825043,844.926208 
	C350.573242,835.134583 344.138733,826.446594 337.263702,817.187988 
M625.965515,898.407410 
	C625.965515,888.133972 625.965515,877.860535 625.965515,867.423584 
	C620.376160,867.423584 615.361023,867.423584 610.834045,867.423584 
	C610.834045,881.969177 610.134033,896.127075 611.057922,910.178162 
	C611.783569,921.214539 617.974915,926.878662 628.911377,928.466248 
	C644.280518,930.697449 658.558472,926.338135 659.446228,905.762512 
	C659.768799,898.286194 659.708984,890.792542 659.774414,883.306335 
	C659.820496,878.033447 659.783325,872.759888 659.783325,867.328308 
	C654.182617,867.328308 649.292419,867.328308 643.903442,867.328308 
	C643.903442,869.617371 643.908203,871.576904 643.902649,873.536438 
	C643.873657,883.689087 644.023376,893.846741 643.747192,903.992676 
	C643.564514,910.705566 640.618408,913.373230 634.589722,913.227051 
	C628.898865,913.089050 626.306458,910.270386 626.022034,903.865173 
	C625.955627,902.369507 625.982910,900.869690 625.965515,898.407410 
M697.995483,826.423767 
	C693.938965,812.375488 689.882446,798.327148 685.870544,784.433289 
	C666.158386,782.022217 666.158630,782.022278 660.994019,799.915100 
	C660.809448,800.554565 660.605957,801.188599 660.421265,801.828003 
	C656.317871,816.033997 652.215881,830.240356 647.956543,844.990662 
	C652.975952,844.990662 657.455078,845.149597 661.907532,844.875488 
	C662.980835,844.809448 664.663696,843.446289 664.860840,842.442749 
	C665.455078,839.418579 667.148743,838.803589 669.845581,838.968445 
	C672.667664,839.140991 675.520081,839.168457 678.338623,838.968506 
	C682.802490,838.651794 686.886475,838.671997 686.843933,844.758789 
	C692.432922,844.758789 697.544250,844.758789 703.258667,844.758789 
	C701.492249,838.657043 699.835449,832.933899 697.995483,826.423767 
M459.018524,784.001221 
	C458.352295,783.998962 457.685638,783.980591 457.019867,783.997070 
	C452.045685,784.120361 445.628571,782.413208 442.490204,784.878235 
	C439.131317,787.516602 438.713379,794.044495 437.271271,798.950989 
	C432.821716,814.090088 428.495880,829.265564 423.959229,844.991028 
	C428.963135,844.991028 433.430206,845.112305 437.881317,844.899414 
	C438.901154,844.850647 440.636719,843.740540 440.726562,842.966125 
	C441.189423,838.976929 443.751801,838.852783 446.810364,838.974121 
	C450.302673,839.112732 453.807983,839.100464 457.301361,838.976135 
	C459.881165,838.884399 461.739777,839.197937 462.357056,842.339966 
	C462.566254,843.404846 464.500793,844.787048 465.730347,844.876465 
	C470.016083,845.187927 474.338318,844.996887 478.761108,844.996887 
	C478.761108,844.067810 478.874390,843.545349 478.744843,843.092285 
	C473.392548,824.377258 468.049347,805.659363 462.572357,786.980713 
	C462.235870,785.833252 460.821869,785.001709 459.018524,784.001221 
M533.537231,880.897705 
	C532.155457,876.460510 532.057983,870.235413 529.044006,868.070374 
	C525.789978,865.732849 519.809143,867.189758 515.017517,866.997070 
	C514.518433,866.976990 514.004517,867.069458 513.519958,866.983215 
	C510.187378,866.390259 508.931671,868.107849 508.081543,871.118347 
	C503.150909,888.578247 498.040039,905.987305 493.012512,923.419983 
	C492.622772,924.771301 492.405518,926.172424 492.012634,927.992798 
	C496.879822,927.992798 501.201538,928.112488 505.507629,927.906555 
	C506.551025,927.856689 508.334381,926.831970 508.427856,926.086365 
	C508.958801,921.850952 511.736633,921.822754 514.938110,921.973572 
	C518.097412,922.122375 521.273743,922.111511 524.434143,921.975037 
	C527.320251,921.850464 529.703369,921.987915 530.199585,925.715149 
	C530.313843,926.573547 531.905884,927.830750 532.869324,927.879089 
	C537.425842,928.108032 542.000244,927.981384 547.049255,927.981384 
	C542.485291,912.032715 538.139648,896.846924 533.537231,880.897705 
M858.058960,845.000732 
	C859.164917,844.506897 861.158752,844.124268 861.236755,843.501587 
	C861.873779,838.416809 865.442017,838.881897 868.976746,838.988586 
	C871.805603,839.073975 874.645203,839.121033 877.469055,838.974609 
	C880.382141,838.823486 882.712219,839.050659 883.208740,842.744812 
	C883.323120,843.595825 884.928467,844.833801 885.898071,844.882202 
	C890.447388,845.109131 895.014282,844.983093 900.102051,844.983093 
	C894.332947,825.023560 888.826660,805.851990 883.171326,786.724426 
	C882.850159,785.638184 881.337769,784.181274 880.328796,784.139893 
	C874.373047,783.895691 868.402222,784.019653 862.360657,784.019653 
	C856.445007,804.423401 850.664673,824.360352 844.679260,845.004639 
	C849.261719,845.004639 853.203491,845.004639 858.058960,845.000732 
M774.504089,892.967224 
	C773.436218,889.298889 772.418640,885.614868 771.288025,881.966003 
	C769.770996,877.070129 769.556580,870.322571 766.210510,867.846924 
	C762.835144,865.349731 756.295288,867.338928 751.178772,866.915894 
	C747.499878,866.611877 746.395203,868.309509 745.505127,871.479736 
	C740.700623,888.592285 735.671692,905.641785 730.743042,922.719543 
	C730.295593,924.269836 730.011597,925.867310 729.644043,927.476440 
	C742.584900,929.391663 744.941589,928.694885 747.553711,922.005737 
	C751.518372,922.005737 755.674255,922.257019 759.786133,921.938904 
	C764.385071,921.583191 768.073242,922.069824 768.283752,927.659668 
	C773.705750,927.659668 778.766663,927.659668 784.437317,927.659668 
	C781.123169,916.032715 777.945007,904.882874 774.504089,892.967224 
M555.035583,922.571716 
	C563.992676,928.319885 573.704895,930.314331 584.134827,928.111938 
	C592.506165,926.344238 597.557190,921.236023 598.785095,913.729553 
	C600.087524,905.767090 596.778931,898.607178 589.380371,894.406067 
	C585.348389,892.116516 580.844727,890.656128 576.820312,888.355530 
	C574.900391,887.257935 573.602173,885.072876 572.022339,883.380371 
	C574.318665,882.565735 576.747253,880.825623 578.883606,881.130798 
	C583.205811,881.748352 587.369507,883.475342 592.073608,884.887451 
	C593.949646,881.060547 595.901428,877.078979 598.034119,872.728333 
	C589.547913,867.077515 580.702454,864.736267 570.890503,866.738220 
	C563.298279,868.287231 557.627991,872.201965 555.968079,880.221191 
	C554.313538,888.213928 557.497681,895.069824 565.047485,899.633789 
	C569.161011,902.120422 573.745178,903.830811 577.845581,906.335754 
	C579.758118,907.504150 581.025757,909.728088 582.585754,911.473511 
	C580.276978,912.367554 577.810242,914.281433 575.690918,913.953125 
	C570.548889,913.156433 565.568420,911.316650 559.738220,909.676392 
	C558.211182,913.323608 556.389099,917.675415 555.035583,922.571716 
M621.569092,511.930664 
	C624.809937,515.423584 628.050842,518.916504 631.748779,522.902039 
	C643.269165,506.087067 654.075439,490.314331 664.881714,474.541595 
	C664.583435,473.924469 664.285156,473.307312 663.986816,472.690155 
	C661.045349,473.326874 657.833679,473.417480 655.217529,474.711761 
	C649.421021,477.579285 643.920654,481.046387 638.304749,484.278015 
	C629.117737,489.564636 619.934753,494.858398 609.574585,500.826324 
	C613.780701,504.708923 617.423279,508.071381 621.569092,511.930664 
M549.499573,493.031097 
	C555.884399,502.439514 562.269287,511.847961 568.868103,521.571716 
	C576.516663,514.317078 583.548401,507.647461 591.009949,500.570160 
	C575.855835,491.528778 561.370300,483.073547 547.111877,474.251282 
	C543.420288,471.967102 540.516724,472.158661 536.986511,474.547577 
	C541.085388,480.618896 545.078918,486.534241 549.499573,493.031097 
M557.444092,845.009216 
	C559.706909,845.009216 561.969727,845.009216 564.301147,845.009216 
	C564.301147,824.300781 564.301147,804.304626 564.301147,784.435791 
	C558.930237,784.435791 554.040100,784.435791 549.252136,784.435791 
	C549.252136,804.772766 549.252136,824.662720 549.252136,845.009216 
	C551.906250,845.009216 554.201599,845.009216 557.444092,845.009216 
M601.886108,508.451813 
	C600.625610,508.889832 599.118164,509.027802 598.151855,509.823181 
	C595.457153,512.041443 593.261780,514.953918 590.375671,516.835083 
	C582.128784,522.210571 583.929077,529.967529 584.429443,537.562927 
	C595.764038,537.562927 606.641235,537.562927 617.294983,537.562927 
	C619.177795,529.253784 617.955688,522.492981 610.958496,517.335388 
	C607.776917,514.990356 605.242432,511.767273 601.886108,508.451813 
z"/>
<path fill="#A6D9E0" opacity="1.000000" stroke="none" 
	d="
M459.174103,740.038391 
	C458.485016,735.463928 457.211548,730.891235 457.197021,726.314636 
	C457.049286,679.831787 457.103088,633.348267 457.109161,586.864929 
	C457.111115,571.884338 465.718811,563.172485 480.578644,563.170410 
	C560.883179,563.159058 641.187744,563.158875 721.492249,563.170776 
	C735.814087,563.172852 744.817566,571.815918 744.847595,586.071716 
	C744.948364,633.887695 744.922363,681.704163 744.800171,729.519958 
	C744.791870,732.766968 743.586792,736.010864 742.715210,739.616272 
	C742.492188,739.976318 742.207275,739.934387 741.879578,740.001709 
	C741.339966,740.138611 741.128052,740.208069 740.916138,740.277588 
	C727.921387,740.239441 714.926575,740.168457 701.931824,740.168518 
	C621.956299,740.169067 541.980835,740.185608 461.253967,740.134888 
	C460.301361,740.036621 460.100067,740.000244 459.717041,739.977356 
	C459.535370,739.990784 459.174103,740.038391 459.174103,740.038391 
M570.991821,625.246826 
	C573.609131,622.657410 574.316895,619.675537 571.726990,616.868347 
	C569.131714,614.055176 566.068115,614.713806 563.187012,616.802124 
	C545.675415,629.495361 528.110107,642.115173 510.671783,654.908264 
	C505.311462,658.840820 505.286774,662.691956 510.516418,666.551147 
	C527.919434,679.393494 545.412292,692.114563 562.915039,704.820984 
	C565.993225,707.055664 569.477295,708.146057 572.115479,704.384338 
	C574.637939,700.787720 572.962585,697.845703 569.712036,695.491272 
	C562.975525,690.611755 556.279053,685.676819 549.574768,680.752930 
	C540.640442,674.191284 531.714233,667.618530 522.209351,660.627502 
	C538.676331,648.718323 554.555542,637.234131 570.991821,625.246826 
M661.169983,647.316833 
	C667.145630,651.709961 673.121277,656.103027 679.540466,660.822205 
	C672.171204,666.180420 665.460510,671.050110 658.760132,675.934021 
	C649.741089,682.507935 640.678223,689.023621 631.744751,695.712097 
	C628.803650,697.914185 627.333740,701.018982 629.817200,704.392334 
	C632.315674,707.786194 635.430481,707.224060 638.557373,704.952454 
	C656.078491,692.224182 673.656128,679.573547 691.139832,666.794250 
	C696.743103,662.698730 696.660889,659.074890 691.074463,654.981567 
	C673.739990,642.280396 656.369141,629.628845 639.012207,616.958191 
	C635.804504,614.616516 632.378967,613.818054 629.812622,617.441772 
	C627.281433,621.015869 629.040527,623.948486 632.313354,626.306274 
	C641.773865,633.121826 651.172607,640.023132 661.169983,647.316833 
M590.156311,673.624817 
	C587.020874,685.360840 583.810608,697.077637 580.792969,708.843933 
	C579.814880,712.657776 580.731384,716.103394 585.143066,716.929688 
	C589.233032,717.695740 591.009827,715.070251 591.988647,711.364868 
	C596.791321,693.183899 601.729736,675.038757 606.619690,656.880798 
	C611.163513,640.008240 615.743347,623.145203 620.227356,606.256775 
	C621.560242,601.236572 619.247559,597.511597 615.039795,597.667175 
	C611.112183,597.812317 609.855774,600.660217 608.981323,603.911499 
	C602.800842,626.892578 596.586548,649.864441 590.156311,673.624817 
z"/>
<path fill="#A6D9DF" opacity="1.000000" stroke="none" 
	d="
M590.007812,549.160156 
	C600.338379,549.160034 610.170471,549.166138 620.002502,549.157776 
	C628.327759,549.150696 628.987976,548.482178 629.189636,540.013855 
	C629.213135,539.030151 629.301636,538.048035 629.386536,536.616577 
	C634.718445,538.343079 637.294373,535.391541 639.899719,531.512390 
	C651.136536,514.781738 662.705627,498.274200 673.947144,481.546631 
	C676.100647,478.342224 678.057068,477.770660 681.705383,478.936005 
	C700.910767,485.070648 720.170288,491.044891 737.531677,501.648651 
	C750.361755,509.484863 761.365723,518.904907 763.993469,534.891968 
	C765.721802,545.406921 767.351318,555.938171 769.017334,566.463318 
	C775.186218,605.435974 781.519348,644.384338 787.281677,683.417053 
	C787.916870,687.719360 786.385254,693.242188 783.938965,696.923096 
	C777.637390,706.404541 767.636658,711.146606 756.511047,715.333435 
	C756.393066,712.837646 756.225525,710.936462 756.224731,709.035095 
	C756.207458,668.207092 756.181335,627.379150 756.221436,586.551147 
	C756.235474,572.253174 750.496826,561.249390 737.419312,555.075989 
	C733.062744,553.019348 727.807312,551.992065 722.959473,551.981140 
	C641.637207,551.797974 560.314270,551.769226 478.991821,551.909302 
	C459.256042,551.943237 445.823425,565.819458 445.804108,585.455505 
	C445.763947,626.283508 445.788696,667.111511 445.786743,707.939514 
	C445.786652,710.088440 445.786743,712.237366 445.786743,714.403564 
	C427.975769,713.543884 412.264313,694.918457 414.943726,677.988953 
	C422.595459,629.642761 430.287781,581.302551 438.165161,532.992798 
	C439.796417,522.988892 445.908661,515.429443 453.584747,509.175812 
	C468.852814,496.736938 486.984894,490.036560 505.289062,483.745789 
	C510.481018,481.961426 515.854126,480.682495 520.983826,478.746826 
	C524.122803,477.562347 525.738647,478.368042 527.514954,481.025665 
	C538.622192,497.643829 549.911316,514.140259 561.079834,530.717712 
	C563.831055,534.801392 566.878662,537.769470 572.800293,534.542725 
	C572.800293,538.061340 572.722839,540.850098 572.819641,543.632812 
	C572.944824,547.232971 574.850708,549.130188 578.510559,549.140869 
	C582.176819,549.151672 585.843018,549.154053 590.007812,549.160156 
z"/>
<path fill="#A6D9E0" opacity="1.000000" stroke="none" 
	d="
M549.122559,443.959106 
	C534.379578,426.872131 526.179016,406.716705 521.527710,384.920685 
	C521.268250,383.704773 521.449158,382.252716 521.856995,381.057953 
	C527.960449,363.175323 535.523682,346.000092 547.052368,330.853973 
	C549.451294,327.702301 552.381653,324.955109 555.814026,321.205536 
	C563.209045,329.240784 570.449585,336.757111 577.248474,344.653687 
	C580.338257,348.242249 583.206726,349.709167 588.287964,349.394592 
	C603.882812,348.429077 619.536438,348.378967 635.169128,348.077332 
	C640.564331,347.973267 644.887939,349.986053 648.813782,354.040100 
	C659.156311,364.720459 669.184143,375.600555 676.482117,388.657593 
	C677.520874,390.515961 678.306946,393.205933 677.793335,395.133698 
	C673.157166,412.537201 665.553833,428.528412 654.188721,442.620880 
	C653.670776,443.263123 653.327515,444.046204 652.228333,445.903534 
	C650.926880,439.151489 647.308899,437.970154 642.504883,437.699005 
	C622.055115,436.544769 601.598877,434.663300 581.204895,437.968018 
	C576.004272,438.810760 571.034241,441.003326 565.878479,442.244507 
	C564.497986,442.576874 562.258362,442.215149 561.378540,441.271729 
	C556.782654,436.343597 553.072815,436.941315 549.943787,443.669617 
	C549.560547,443.974365 549.122559,443.959106 549.122559,443.959106 
z"/>
<path fill="#A6D9E0" opacity="1.000000" stroke="none" 
	d="
M618.165161,262.761536 
	C647.516785,267.323608 665.487732,284.878723 675.895325,311.200439 
	C683.480469,330.384033 684.420166,350.415375 682.645142,370.704346 
	C682.548767,371.806091 682.134338,372.880035 681.768433,374.373199 
	C676.765442,368.492767 672.224487,362.794586 667.291199,357.459167 
	C662.435852,352.208038 657.524780,346.898865 651.974915,342.440765 
	C648.675232,339.790222 644.131226,337.311066 640.084961,337.209290 
	C623.811157,336.800049 607.509155,337.205292 591.227966,337.670929 
	C588.248291,337.756165 586.434753,337.225037 584.372803,335.056671 
	C576.576416,326.858032 568.454712,318.969849 560.554138,310.868561 
	C557.150269,307.378204 554.066162,307.750000 550.558777,310.737427 
	C537.333069,322.002533 528.471985,336.376160 521.002808,351.767731 
	C520.437622,352.932404 519.916382,354.118378 519.374634,355.294464 
	C518.929260,355.224152 518.483826,355.153839 518.038391,355.083557 
	C518.669495,348.136414 518.986511,341.143494 519.991516,334.250854 
	C522.843750,314.688507 530.009155,297.032318 543.938477,282.570618 
	C556.325623,269.710022 571.789795,263.272522 589.309082,262.151215 
	C598.731750,261.548096 608.251648,262.464966 618.165161,262.761536 
z"/>
<path fill="#A6D9DF" opacity="1.000000" stroke="none" 
	d="
M639.117126,824.999634 
	C639.117126,831.788513 639.117126,838.077515 639.117126,844.681763 
	C633.698975,844.681763 628.812744,844.681763 623.310791,844.681763 
	C623.310791,835.062683 623.310791,825.679810 623.310791,816.296875 
	C622.913696,816.177673 622.516602,816.058472 622.119568,815.939270 
	C619.056335,820.967041 615.641235,825.818787 613.016907,831.066040 
	C609.546936,838.004150 605.495605,837.620789 602.367065,831.244446 
	C599.744019,825.898376 596.273987,820.967896 592.245239,815.965454 
	C592.245239,825.394958 592.245239,834.824463 592.245239,844.624146 
	C586.656250,844.624146 581.755615,844.624146 576.442017,844.624146 
	C576.442017,824.633728 576.442017,804.610901 576.442017,784.015015 
	C581.049561,784.015015 585.523071,783.755737 589.933777,784.167664 
	C591.317322,784.296936 592.894653,786.002686 593.763855,787.378174 
	C598.366943,794.662415 602.772644,802.071289 607.646790,810.095642 
	C612.144226,802.678772 616.501465,796.004700 620.299805,789.026489 
	C622.390625,785.185120 624.809509,783.311462 629.291382,783.920593 
	C632.221252,784.318726 635.249084,783.995667 639.117126,783.995667 
	C639.117126,797.694397 639.117126,811.097107 639.117126,824.999634 
z"/>
<path fill="#A6D9DF" opacity="1.000000" stroke="none" 
	d="
M435.962524,918.939087 
	C435.962524,922.059387 435.962524,924.688782 435.962524,927.658325 
	C430.587433,927.658325 425.687439,927.658325 420.408783,927.658325 
	C420.408783,907.685303 420.408783,887.781006 420.408783,867.047058 
	C425.050873,867.047058 429.810669,866.868835 434.537964,867.181702 
	C435.619629,867.253235 436.842529,868.859802 437.569244,870.028137 
	C442.136658,877.370544 446.582184,884.788818 451.630432,893.109009 
	C455.014648,887.533630 458.052460,882.541016 461.078339,877.541260 
	C467.820496,866.400879 467.818207,866.397156 480.879639,867.045288 
	C481.361420,867.069153 481.836578,867.226196 482.710510,867.399780 
	C482.710510,887.392700 482.710510,907.411438 482.710510,927.718262 
	C477.744965,927.718262 472.977264,927.718262 467.397736,927.718262 
	C467.397736,918.235779 467.397736,908.747681 467.397736,899.259644 
	C466.958405,899.163696 466.519073,899.067749 466.079742,898.971741 
	C462.665802,904.589600 459.281036,910.225464 455.828857,915.819702 
	C452.969696,920.453003 450.280518,920.448669 447.442413,915.810181 
	C443.978577,910.148865 440.578186,904.448792 435.962524,898.919556 
	C435.962524,905.429077 435.962524,911.938660 435.962524,918.939087 
z"/>
<path fill="#A6D9DF" opacity="1.000000" stroke="none" 
	d="
M766.105896,783.995667 
	C769.190002,783.995667 771.804016,783.995667 774.690308,783.995667 
	C774.690308,804.497375 774.690308,824.402222 774.690308,844.656067 
	C769.609497,844.656067 764.709412,844.656067 759.311646,844.656067 
	C759.311646,835.177795 759.311646,825.754944 759.311646,816.332092 
	C758.931030,816.176819 758.550354,816.021545 758.169739,815.866272 
	C756.653931,818.199402 755.100281,820.508972 753.631287,822.871216 
	C751.521118,826.264587 749.514526,829.722595 747.387024,833.104797 
	C744.684570,837.401123 741.989502,837.357666 739.273438,832.940979 
	C735.807190,827.304504 732.428833,821.613953 727.999878,816.146545 
	C727.999878,825.474854 727.999878,834.803162 727.999878,844.562927 
	C722.492249,844.562927 717.616577,844.562927 712.310486,844.562927 
	C712.310486,824.630371 712.310486,804.610168 712.310486,784.008179 
	C716.745483,784.008179 721.061218,783.709534 725.295837,784.165039 
	C726.843933,784.331543 728.636902,786.010315 729.569092,787.475708 
	C734.192749,794.743713 738.566101,802.170959 743.384094,810.130920 
	C747.844543,802.767151 752.185730,796.245850 755.825745,789.354248 
	C758.088440,785.070190 760.889587,783.091736 766.105896,783.995667 
z"/>
<path fill="#A6D9DE" opacity="1.000000" stroke="none" 
	d="
M826.669922,842.950806 
	C819.720032,843.718567 813.152405,844.608398 806.556885,844.936096 
	C800.093994,845.257202 793.602722,845.006042 786.680237,845.006042 
	C786.680237,824.669617 786.680237,804.664185 786.680237,784.282959 
	C797.565918,784.282959 808.339783,783.873169 819.062927,784.433350 
	C825.726257,784.781433 831.923340,787.325317 834.140198,794.683289 
	C836.405457,802.201721 834.961670,808.828857 828.049805,814.197754 
	C834.708374,818.080261 836.879517,823.925964 835.924622,831.063477 
	C835.180359,836.626587 832.185730,840.555420 826.669922,842.950806 
M817.576660,829.561401 
	C818.328918,827.725586 819.618164,825.888977 819.615356,824.054260 
	C819.613892,823.083313 817.420959,821.377930 816.121155,821.279968 
	C811.563354,820.936218 806.963684,821.146545 802.479004,821.146545 
	C802.479004,824.455627 802.479004,827.035034 802.479004,829.826538 
	C807.487183,829.826538 812.119202,829.826538 817.576660,829.561401 
M809.496399,808.130920 
	C811.329102,808.111633 813.162170,808.107056 814.994507,808.069702 
	C817.999146,808.008423 820.154175,806.386658 819.520386,803.504578 
	C819.142334,801.785522 816.912048,799.477478 815.249939,799.233093 
	C811.081543,798.620056 806.762573,799.030579 802.406982,799.030579 
	C802.406982,802.334045 802.406982,804.917236 802.406982,808.131104 
	C804.655090,808.131104 806.603577,808.131104 809.496399,808.130920 
z"/>
<path fill="#A6D9DF" opacity="1.000000" stroke="none" 
	d="
M516.107971,804.851013 
	C517.666504,807.407654 519.048401,809.648254 520.430359,811.888794 
	C520.787781,811.857483 521.145142,811.826172 521.502563,811.794922 
	C521.502563,802.713440 521.502563,793.632019 521.502563,784.289917 
	C527.085022,784.289917 531.825623,784.289917 536.972229,784.289917 
	C536.972229,804.370239 536.972229,824.254761 536.972229,844.966492 
	C532.424133,844.966492 527.820557,845.187073 523.264221,844.820557 
	C522.034424,844.721619 520.638184,843.033081 519.845825,841.748840 
	C514.802795,833.575317 509.907501,825.310852 503.947998,817.268066 
	C503.947998,826.250488 503.947998,835.232910 503.947998,844.603882 
	C498.417725,844.603882 493.539673,844.603882 488.275757,844.603882 
	C488.275757,824.690247 488.275757,804.796814 488.275757,784.052979 
	C492.876801,784.052979 497.630280,783.876770 502.352020,784.185730 
	C503.435150,784.256653 504.669342,785.835083 505.389252,786.995605 
	C508.984711,792.791565 512.432007,798.679382 516.107971,804.851013 
z"/>
<path fill="#A6D9E0" opacity="1.000000" stroke="none" 
	d="
M365.899689,788.195801 
	C365.743164,785.465881 366.109131,783.838562 369.034973,783.965149 
	C373.004852,784.136902 376.987793,784.007935 381.534729,784.007935 
	C381.534729,791.283020 381.534729,798.203918 381.534729,805.559082 
	C387.646423,805.559082 393.203949,805.559082 399.545288,805.559082 
	C399.545288,798.656250 399.545288,791.615540 399.545288,784.301147 
	C405.058929,784.301147 409.799774,784.301147 414.959351,784.301147 
	C414.959351,804.348999 414.959351,824.232239 414.959351,844.560303 
	C410.133789,844.560303 405.273315,844.560303 399.729858,844.560303 
	C399.729858,836.924500 399.729858,829.361694 399.729858,821.449829 
	C393.523346,821.449829 387.989471,821.449829 381.810974,821.449829 
	C381.810974,829.236206 381.810974,836.802429 381.810974,844.677490 
	C376.287231,844.677490 371.403229,844.677490 365.897797,844.677490 
	C365.897797,825.859680 365.897797,807.267029 365.899689,788.195801 
z"/>
<path fill="#A6D9DF" opacity="1.000000" stroke="none" 
	d="
M671.037354,898.000000 
	C671.037354,887.549072 671.037354,877.598145 671.037354,867.325500 
	C676.443848,867.325500 681.343201,867.325500 686.734070,867.325500 
	C686.734070,874.510010 686.734070,881.598877 686.734070,888.687744 
	C687.139160,888.864990 687.544250,889.042236 687.949341,889.219482 
	C690.504761,885.517456 693.827393,882.125610 695.472961,878.055725 
	C700.578491,865.428589 710.571533,865.924683 722.046509,867.540161 
	C716.282288,875.551392 711.108521,883.453003 705.171387,890.731995 
	C701.504395,895.227661 701.821716,898.265930 705.390686,902.601318 
	C711.820129,910.411438 717.564148,918.785889 724.317322,927.900208 
	C717.477661,927.900208 711.609802,928.052368 705.763367,927.766724 
	C704.648193,927.712219 703.455505,926.054810 702.576172,924.921631 
	C698.921997,920.212646 695.374023,915.421326 691.822449,910.706970 
	C684.884827,914.913452 687.728760,921.646790 686.643433,927.604248 
	C681.709961,927.604248 676.808228,927.604248 671.037354,927.604248 
	C671.037354,917.986633 671.037354,908.243286 671.037354,898.000000 
z"/>
<path fill="#A6D9DF" opacity="1.000000" stroke="none" 
	d="
M337.483948,817.473267 
	C344.138733,826.446594 350.573242,835.134583 357.825043,844.926208 
	C350.954620,844.926208 345.099548,845.078064 339.265900,844.792542 
	C338.156860,844.738220 336.974182,843.075439 336.096710,841.944397 
	C332.452209,837.246216 328.911530,832.467529 325.356445,827.749878 
	C318.319977,831.916382 321.129059,838.676819 320.010620,844.604431 
	C315.071991,844.604431 310.198822,844.604431 304.982147,844.604431 
	C304.982147,824.506470 304.982147,804.606262 304.982147,784.351196 
	C309.920715,784.351196 314.663513,784.351196 320.242493,784.351196 
	C320.242493,791.500122 320.242493,798.664673 320.242493,805.829163 
	C320.679840,805.933899 321.117157,806.038574 321.554504,806.143250 
	C325.837311,799.883118 330.228790,793.693237 334.349365,787.328125 
	C335.990356,784.793213 337.865814,783.774170 340.882477,783.934082 
	C345.455994,784.176758 350.051880,783.997559 355.938019,783.997559 
	C349.210876,793.343872 343.346375,801.746765 337.177185,809.919617 
	C335.115051,812.651489 334.664398,814.789124 337.483948,817.473267 
z"/>
<path fill="#A6D9DE" opacity="1.000000" stroke="none" 
	d="
M625.966309,898.889648 
	C625.982910,900.869690 625.955627,902.369507 626.022034,903.865173 
	C626.306458,910.270386 628.898865,913.089050 634.589722,913.227051 
	C640.618408,913.373230 643.564514,910.705566 643.747192,903.992676 
	C644.023376,893.846741 643.873657,883.689087 643.902649,873.536438 
	C643.908203,871.576904 643.903442,869.617371 643.903442,867.328308 
	C649.292419,867.328308 654.182617,867.328308 659.783325,867.328308 
	C659.783325,872.759888 659.820496,878.033447 659.774414,883.306335 
	C659.708984,890.792542 659.768799,898.286194 659.446228,905.762512 
	C658.558472,926.338135 644.280518,930.697449 628.911377,928.466248 
	C617.974915,926.878662 611.783569,921.214539 611.057922,910.178162 
	C610.134033,896.127075 610.834045,881.969177 610.834045,867.423584 
	C615.361023,867.423584 620.376160,867.423584 625.965515,867.423584 
	C625.965515,877.860535 625.965515,888.133972 625.966309,898.889648 
z"/>
<path fill="#A6D9DE" opacity="1.000000" stroke="none" 
	d="
M698.087036,826.817261 
	C699.835449,832.933899 701.492249,838.657043 703.258667,844.758789 
	C697.544250,844.758789 692.432922,844.758789 686.843933,844.758789 
	C686.886475,838.671997 682.802490,838.651794 678.338623,838.968506 
	C675.520081,839.168457 672.667664,839.140991 669.845581,838.968445 
	C667.148743,838.803589 665.455078,839.418579 664.860840,842.442749 
	C664.663696,843.446289 662.980835,844.809448 661.907532,844.875488 
	C657.455078,845.149597 652.975952,844.990662 647.956543,844.990662 
	C652.215881,830.240356 656.317871,816.033997 660.421265,801.828003 
	C660.605957,801.188599 660.809448,800.554565 660.994019,799.915100 
	C666.158630,782.022278 666.158386,782.022217 685.870544,784.433289 
	C689.882446,798.327148 693.938965,812.375488 698.087036,826.817261 
M679.791321,817.762634 
	C678.530334,813.086060 677.269409,808.409485 676.008423,803.732910 
	C675.688599,803.767395 675.368713,803.801819 675.048889,803.836304 
	C673.279297,810.815247 671.509766,817.794128 669.699768,824.932495 
	C673.968872,824.932495 677.464111,824.932495 681.356567,824.932495 
	C680.806885,822.414734 680.387512,820.493591 679.791321,817.762634 
z"/>
<path fill="#A6D9DE" opacity="1.000000" stroke="none" 
	d="
M459.463867,784.012207 
	C460.821869,785.001709 462.235870,785.833252 462.572357,786.980713 
	C468.049347,805.659363 473.392548,824.377258 478.744843,843.092285 
	C478.874390,843.545349 478.761108,844.067810 478.761108,844.996887 
	C474.338318,844.996887 470.016083,845.187927 465.730347,844.876465 
	C464.500793,844.787048 462.566254,843.404846 462.357056,842.339966 
	C461.739777,839.197937 459.881165,838.884399 457.301361,838.976135 
	C453.807983,839.100464 450.302673,839.112732 446.810364,838.974121 
	C443.751801,838.852783 441.189423,838.976929 440.726562,842.966125 
	C440.636719,843.740540 438.901154,844.850647 437.881317,844.899414 
	C433.430206,845.112305 428.963135,844.991028 423.959229,844.991028 
	C428.495880,829.265564 432.821716,814.090088 437.271271,798.950989 
	C438.713379,794.044495 439.131317,787.516602 442.490204,784.878235 
	C445.628571,782.413208 452.045685,784.120361 457.019867,783.997070 
	C457.685638,783.980591 458.352295,783.998962 459.463867,784.012207 
M446.488831,824.993103 
	C449.887573,825.163330 453.286285,825.333557 457.693604,825.554260 
	C455.673981,817.634644 453.900940,810.681885 452.127869,803.729187 
	C451.755035,803.723694 451.382202,803.718262 451.009338,803.712830 
	C449.363953,810.567627 447.718567,817.422424 446.488831,824.993103 
z"/>
<path fill="#A6D9DE" opacity="1.000000" stroke="none" 
	d="
M533.665588,881.279419 
	C538.139648,896.846924 542.485291,912.032715 547.049255,927.981384 
	C542.000244,927.981384 537.425842,928.108032 532.869324,927.879089 
	C531.905884,927.830750 530.313843,926.573547 530.199585,925.715149 
	C529.703369,921.987915 527.320251,921.850464 524.434143,921.975037 
	C521.273743,922.111511 518.097412,922.122375 514.938110,921.973572 
	C511.736633,921.822754 508.958801,921.850952 508.427856,926.086365 
	C508.334381,926.831970 506.551025,927.856689 505.507629,927.906555 
	C501.201538,928.112488 496.879822,927.992798 492.012634,927.992798 
	C492.405518,926.172424 492.622772,924.771301 493.012512,923.419983 
	C498.040039,905.987305 503.150909,888.578247 508.081543,871.118347 
	C508.931671,868.107849 510.187378,866.390259 513.519958,866.983215 
	C514.004517,867.069458 514.518433,866.976990 515.017517,866.997070 
	C519.809143,867.189758 525.789978,865.732849 529.044006,868.070374 
	C532.057983,870.235413 532.155457,876.460510 533.665588,881.279419 
M516.888855,894.370972 
	C515.786926,898.813599 514.685059,903.256226 513.517395,907.963745 
	C517.806152,907.963745 521.302551,907.963745 525.307678,907.963745 
	C523.372498,900.394653 521.590942,893.426392 519.451050,885.056702 
	C518.381714,888.844421 517.711609,891.218018 516.888855,894.370972 
z"/>
<path fill="#A6D9DE" opacity="1.000000" stroke="none" 
	d="
M857.602112,845.002686 
	C853.203491,845.004639 849.261719,845.004639 844.679260,845.004639 
	C850.664673,824.360352 856.445007,804.423401 862.360657,784.019653 
	C868.402222,784.019653 874.373047,783.895691 880.328796,784.139893 
	C881.337769,784.181274 882.850159,785.638184 883.171326,786.724426 
	C888.826660,805.851990 894.332947,825.023560 900.102051,844.983093 
	C895.014282,844.983093 890.447388,845.109131 885.898071,844.882202 
	C884.928467,844.833801 883.323120,843.595825 883.208740,842.744812 
	C882.712219,839.050659 880.382141,838.823486 877.469055,838.974609 
	C874.645203,839.121033 871.805603,839.073975 868.976746,838.988586 
	C865.442017,838.881897 861.873779,838.416809 861.236755,843.501587 
	C861.158752,844.124268 859.164917,844.506897 857.602112,845.002686 
M873.227783,805.156433 
	C873.042053,804.592224 872.856262,804.028015 872.246399,802.175537 
	C870.114624,810.497620 868.301453,817.575623 866.399231,825.001526 
	C870.787537,825.001526 874.271667,825.001526 878.298523,825.001526 
	C876.577698,818.223633 875.000183,812.010010 873.227783,805.156433 
z"/>
<path fill="#A6D9DE" opacity="1.000000" stroke="none" 
	d="
M774.635498,893.350098 
	C777.945007,904.882874 781.123169,916.032715 784.437317,927.659668 
	C778.766663,927.659668 773.705750,927.659668 768.283752,927.659668 
	C768.073242,922.069824 764.385071,921.583191 759.786133,921.938904 
	C755.674255,922.257019 751.518372,922.005737 747.553711,922.005737 
	C744.941589,928.694885 742.584900,929.391663 729.644043,927.476440 
	C730.011597,925.867310 730.295593,924.269836 730.743042,922.719543 
	C735.671692,905.641785 740.700623,888.592285 745.505127,871.479736 
	C746.395203,868.309509 747.499878,866.611877 751.178772,866.915894 
	C756.295288,867.338928 762.835144,865.349731 766.210510,867.846924 
	C769.556580,870.322571 769.770996,877.070129 771.288025,881.966003 
	C772.418640,885.614868 773.436218,889.298889 774.635498,893.350098 
M760.097412,897.356140 
	C759.214478,893.904968 758.331482,890.453735 757.448547,887.002563 
	C757.065308,887.018982 756.682068,887.035400 756.298828,887.051819 
	C754.505981,893.947449 752.713135,900.843079 750.822449,908.115112 
	C755.064819,908.115112 758.606201,908.115112 762.754395,908.115112 
	C761.853271,904.479797 761.067871,901.311218 760.097412,897.356140 
z"/>
<path fill="#A6D9DD" opacity="1.000000" stroke="none" 
	d="
M554.801331,922.299438 
	C556.389099,917.675415 558.211182,913.323608 559.738220,909.676392 
	C565.568420,911.316650 570.548889,913.156433 575.690918,913.953125 
	C577.810242,914.281433 580.276978,912.367554 582.585754,911.473511 
	C581.025757,909.728088 579.758118,907.504150 577.845581,906.335754 
	C573.745178,903.830811 569.161011,902.120422 565.047485,899.633789 
	C557.497681,895.069824 554.313538,888.213928 555.968079,880.221191 
	C557.627991,872.201965 563.298279,868.287231 570.890503,866.738220 
	C580.702454,864.736267 589.547913,867.077515 598.034119,872.728333 
	C595.901428,877.078979 593.949646,881.060547 592.073608,884.887451 
	C587.369507,883.475342 583.205811,881.748352 578.883606,881.130798 
	C576.747253,880.825623 574.318665,882.565735 572.022339,883.380371 
	C573.602173,885.072876 574.900391,887.257935 576.820312,888.355530 
	C580.844727,890.656128 585.348389,892.116516 589.380371,894.406067 
	C596.778931,898.607178 600.087524,905.767090 598.785095,913.729553 
	C597.557190,921.236023 592.506165,926.344238 584.134827,928.111938 
	C573.704895,930.314331 563.992676,928.319885 554.801331,922.299438 
z"/>
<path fill="#A6D8DD" opacity="1.000000" stroke="none" 
	d="
M552.047791,447.982086 
	C558.767212,453.384186 565.408325,458.887756 572.231689,464.155304 
	C577.404480,468.148712 583.459351,469.765961 589.965271,469.798462 
	C597.783875,469.837555 605.604736,469.807556 613.420105,469.997253 
	C620.163940,470.160950 625.705078,467.085785 630.820740,463.394562 
	C637.761353,458.386505 644.317932,452.846252 651.438171,447.219055 
	C651.438171,452.052216 651.641296,456.831207 651.303955,461.571716 
	C651.212708,462.854279 649.731689,464.444916 648.471802,465.175446 
	C633.373230,473.930298 618.229919,482.610413 602.981140,491.099640 
	C601.623718,491.855316 599.062683,491.796295 597.709534,491.005432 
	C582.926819,482.366150 568.222961,473.587280 553.656372,464.589325 
	C552.051453,463.597931 550.779968,461.098633 550.504639,459.137177 
	C550.024658,455.718018 550.440979,452.173004 550.935303,448.313599 
	C551.608582,447.958282 551.828186,447.970184 552.047791,447.982086 
z"/>
<path fill="#A6D9DD" opacity="1.000000" stroke="none" 
	d="
M621.317505,511.682251 
	C617.423279,508.071381 613.780701,504.708923 609.574585,500.826324 
	C619.934753,494.858398 629.117737,489.564636 638.304749,484.278015 
	C643.920654,481.046387 649.421021,477.579285 655.217529,474.711761 
	C657.833679,473.417480 661.045349,473.326874 663.986816,472.690155 
	C664.285156,473.307312 664.583435,473.924469 664.881714,474.541595 
	C654.075439,490.314331 643.269165,506.087067 631.748779,522.902039 
	C628.050842,518.916504 624.809937,515.423584 621.317505,511.682251 
z"/>
<path fill="#A6D9DE" opacity="1.000000" stroke="none" 
	d="
M549.286011,492.740356 
	C545.078918,486.534241 541.085388,480.618896 536.986511,474.547577 
	C540.516724,472.158661 543.420288,471.967102 547.111877,474.251282 
	C561.370300,483.073547 575.855835,491.528778 591.009949,500.570160 
	C583.548401,507.647461 576.516663,514.317078 568.868103,521.571716 
	C562.269287,511.847961 555.884399,502.439514 549.286011,492.740356 
z"/>
<path fill="#A6D8DD" opacity="1.000000" stroke="none" 
	d="
M556.970581,845.009216 
	C554.201599,845.009216 551.906250,845.009216 549.252136,845.009216 
	C549.252136,824.662720 549.252136,804.772766 549.252136,784.435791 
	C554.040100,784.435791 558.930237,784.435791 564.301147,784.435791 
	C564.301147,804.304626 564.301147,824.300781 564.301147,845.009216 
	C561.969727,845.009216 559.706909,845.009216 556.970581,845.009216 
z"/>
<path fill="#A6D9DF" opacity="1.000000" stroke="none" 
	d="
M602.150269,508.697144 
	C605.242432,511.767273 607.776917,514.990356 610.958496,517.335388 
	C617.955688,522.492981 619.177795,529.253784 617.294983,537.562927 
	C606.641235,537.562927 595.764038,537.562927 584.429443,537.562927 
	C583.929077,529.967529 582.128784,522.210571 590.375671,516.835083 
	C593.261780,514.953918 595.457153,512.041443 598.151855,509.823181 
	C599.118164,509.027802 600.625610,508.889832 602.150269,508.697144 
z"/>
<path fill="#A7D8D8" opacity="1.000000" stroke="none" 
	d="
M742.207275,739.934387 
	C742.207275,739.934387 742.492188,739.976318 742.632446,740.008911 
	C756.898193,740.072998 771.023560,740.104309 785.148987,740.136353 
	C786.478455,740.139343 787.809570,740.106140 789.137146,740.159058 
	C793.044495,740.314941 795.645691,742.281921 795.536682,746.244934 
	C795.434509,749.960266 792.789917,751.795654 789.148682,751.826904 
	C780.839722,751.898254 772.529785,751.861450 764.220276,751.863342 
	C752.320618,751.866028 740.420959,751.863953 729.476257,751.863953 
	C732.973633,749.017456 736.871948,745.844727 741.140625,742.161865 
	C741.743103,741.079346 741.975159,740.506897 742.207275,739.934387 
z"/>
<path fill="#A7D8D8" opacity="1.000000" stroke="none" 
	d="
M458.695007,740.074219 
	C459.174103,740.038391 459.535370,739.990784 459.745850,740.289062 
	C460.273712,741.100830 460.591034,741.614380 460.908356,742.127930 
	C464.812256,745.512085 468.716156,748.896240 472.139709,751.863953 
	C456.618774,751.863953 439.915619,751.864319 423.212494,751.863586 
	C419.889160,751.863403 416.565796,751.853577 413.242462,751.857483 
	C409.384644,751.862061 406.523621,750.175171 406.424286,746.195679 
	C406.316986,741.897827 409.295135,740.153015 413.350952,740.147339 
	C428.305939,740.126587 443.260925,740.121155 458.695007,740.074219 
z"/>
<path fill="#B8C651" opacity="1.000000" stroke="none" 
	d="
M741.879578,740.001709 
	C741.975159,740.506897 741.743103,741.079346 741.273865,741.852173 
	C740.997742,741.658691 740.958740,741.264893 740.917969,740.574341 
	C741.128052,740.208069 741.339966,740.138611 741.879578,740.001709 
z"/>
<path fill="#B8C651" opacity="1.000000" stroke="none" 
	d="
M460.947266,741.820190 
	C460.591034,741.614380 460.273712,741.100830 459.927551,740.275635 
	C460.100067,740.000244 460.301361,740.036621 460.792114,740.174927 
	C461.049774,740.688721 461.018005,741.100525 460.947266,741.820190 
z"/>
<path fill="#A7D8D8" opacity="1.000000" stroke="none" 
	d="
M551.940674,447.755219 
	C551.828186,447.970184 551.608582,447.958282 551.059448,447.920532 
	C551.097778,447.772552 551.465698,447.650452 551.940674,447.755219 
z"/>
<path fill="#A7D8D8" opacity="1.000000" stroke="none" 
	d="
M549.180298,444.150024 
	C549.122559,443.959106 549.560547,443.974365 549.779297,443.987122 
	C549.744690,444.113586 549.491333,444.227264 549.180298,444.150024 
z"/>
<path fill="#BDC126" opacity="1.000000" stroke="none" 
	d="
M570.713318,625.498413 
	C554.555542,637.234131 538.676331,648.718323 522.209351,660.627502 
	C531.714233,667.618530 540.640442,674.191284 549.574768,680.752930 
	C556.279053,685.676819 562.975525,690.611755 569.712036,695.491272 
	C572.962585,697.845703 574.637939,700.787720 572.115479,704.384338 
	C569.477295,708.146057 565.993225,707.055664 562.915039,704.820984 
	C545.412292,692.114563 527.919434,679.393494 510.516418,666.551147 
	C505.286774,662.691956 505.311462,658.840820 510.671783,654.908264 
	C528.110107,642.115173 545.675415,629.495361 563.187012,616.802124 
	C566.068115,614.713806 569.131714,614.055176 571.726990,616.868347 
	C574.316895,619.675537 573.609131,622.657410 570.713318,625.498413 
z"/>
<path fill="#BDC126" opacity="1.000000" stroke="none" 
	d="
M660.882812,647.103821 
	C651.172607,640.023132 641.773865,633.121826 632.313354,626.306274 
	C629.040527,623.948486 627.281433,621.015869 629.812622,617.441772 
	C632.378967,613.818054 635.804504,614.616516 639.012207,616.958191 
	C656.369141,629.628845 673.739990,642.280396 691.074463,654.981567 
	C696.660889,659.074890 696.743103,662.698730 691.139832,666.794250 
	C673.656128,679.573547 656.078491,692.224182 638.557373,704.952454 
	C635.430481,707.224060 632.315674,707.786194 629.817200,704.392334 
	C627.333740,701.018982 628.803650,697.914185 631.744751,695.712097 
	C640.678223,689.023621 649.741089,682.507935 658.760132,675.934021 
	C665.460510,671.050110 672.171204,666.180420 679.540466,660.822205 
	C673.121277,656.103027 667.145630,651.709961 660.882812,647.103821 
z"/>
<path fill="#BDC126" opacity="1.000000" stroke="none" 
	d="
M590.269653,673.232056 
	C596.586548,649.864441 602.800842,626.892578 608.981323,603.911499 
	C609.855774,600.660217 611.112183,597.812317 615.039795,597.667175 
	C619.247559,597.511597 621.560242,601.236572 620.227356,606.256775 
	C615.743347,623.145203 611.163513,640.008240 606.619690,656.880798 
	C601.729736,675.038757 596.791321,693.183899 591.988647,711.364868 
	C591.009827,715.070251 589.233032,717.695740 585.143066,716.929688 
	C580.731384,716.103394 579.814880,712.657776 580.792969,708.843933 
	C583.810608,697.077637 587.020874,685.360840 590.269653,673.232056 
z"/>
<path fill="#BDC126" opacity="1.000000" stroke="none" 
	d="
M817.163940,829.693970 
	C812.119202,829.826538 807.487183,829.826538 802.479004,829.826538 
	C802.479004,827.035034 802.479004,824.455627 802.479004,821.146545 
	C806.963684,821.146545 811.563354,820.936218 816.121155,821.279968 
	C817.420959,821.377930 819.613892,823.083313 819.615356,824.054260 
	C819.618164,825.888977 818.328918,827.725586 817.163940,829.693970 
z"/>
<path fill="#BDC126" opacity="1.000000" stroke="none" 
	d="
M809.024231,808.130981 
	C806.603577,808.131104 804.655090,808.131104 802.406982,808.131104 
	C802.406982,804.917236 802.406982,802.334045 802.406982,799.030579 
	C806.762573,799.030579 811.081543,798.620056 815.249939,799.233093 
	C816.912048,799.477478 819.142334,801.785522 819.520386,803.504578 
	C820.154175,806.386658 817.999146,808.008423 814.994507,808.069702 
	C813.162170,808.107056 811.329102,808.111633 809.024231,808.130981 
z"/>
<path fill="#BCC129" opacity="1.000000" stroke="none" 
	d="
M679.879700,818.167480 
	C680.387512,820.493591 680.806885,822.414734 681.356567,824.932495 
	C677.464111,824.932495 673.968872,824.932495 669.699768,824.932495 
	C671.509766,817.794128 673.279297,810.815247 675.048889,803.836304 
	C675.368713,803.801819 675.688599,803.767395 676.008423,803.732910 
	C677.269409,808.409485 678.530334,813.086060 679.879700,818.167480 
z"/>
<path fill="#BCC129" opacity="1.000000" stroke="none" 
	d="
M446.281006,824.635132 
	C447.718567,817.422424 449.363953,810.567627 451.009338,803.712830 
	C451.382202,803.718262 451.755035,803.723694 452.127869,803.729187 
	C453.900940,810.681885 455.673981,817.634644 457.693604,825.554260 
	C453.286285,825.333557 449.887573,825.163330 446.281006,824.635132 
z"/>
<path fill="#BCC129" opacity="1.000000" stroke="none" 
	d="
M516.965210,893.981323 
	C517.711609,891.218018 518.381714,888.844421 519.451050,885.056702 
	C521.590942,893.426392 523.372498,900.394653 525.307678,907.963745 
	C521.302551,907.963745 517.806152,907.963745 513.517395,907.963745 
	C514.685059,903.256226 515.786926,898.813599 516.965210,893.981323 
z"/>
<path fill="#BCC129" opacity="1.000000" stroke="none" 
	d="
M873.325195,805.476440 
	C875.000183,812.010010 876.577698,818.223633 878.298523,825.001526 
	C874.271667,825.001526 870.787537,825.001526 866.399231,825.001526 
	C868.301453,817.575623 870.114624,810.497620 872.246399,802.175537 
	C872.856262,804.028015 873.042053,804.592224 873.325195,805.476440 
z"/>
<path fill="#BCC129" opacity="1.000000" stroke="none" 
	d="
M760.189941,897.749390 
	C761.067871,901.311218 761.853271,904.479797 762.754395,908.115112 
	C758.606201,908.115112 755.064819,908.115112 750.822449,908.115112 
	C752.713135,900.843079 754.505981,893.947449 756.298828,887.051819 
	C756.682068,887.035400 757.065308,887.018982 757.448547,887.002563 
	C758.331482,890.453735 759.214478,893.904968 760.189941,897.749390 
z"/>
</svg>